<svg width="1764" height="415" xmlns="http://www.w3.org/2000/svg"><defs><linearGradient x1="0%" y1="50%" x2="98.445%" y2="50%" id="a"><stop stop-color="#F47698" stop-opacity="0" offset="0%"/><stop stop-color="#F47698" stop-opacity=".64" offset="100%"/></linearGradient><linearGradient x1="0%" y1="50%" y2="50%" id="b"><stop stop-color="#49CACD" stop-opacity=".88" offset="0%"/><stop stop-color="#49CACD" stop-opacity="0" offset="100%"/></linearGradient><linearGradient x1="24.607%" y1="0%" x2="30.202%" y2="100%" id="c"><stop stop-color="#585BF2" offset="0%"/><stop stop-color="#585BF2" stop-opacity="0" offset="100%"/></linearGradient></defs><g fill="none" fill-rule="evenodd"><path fill="url(#a)" transform="rotate(-140 1532.066 110)" d="M1429 54h260v260h-260z"/><path fill="url(#b)" transform="rotate(-105 1503.218 329)" d="M1430 273h260v260h-260z"/><path fill="url(#c)" transform="rotate(23 1969.722 257)" d="M1486 211h240v240h-240z"/><path fill="#585BF2" d="M1334.03 230l16.97-16.97 16.97 16.97-16.97 16.97z"/><path fill="#585BF2" opacity=".24" d="M1302.05 356.467l42.483-65.416 65.416 42.482-42.482 65.416z"/><path d="M1533.771 262.223a1.5 1.5 0 1 1-1.222 2.74 1.5 1.5 0 0 1 1.222-2.74zm14.617 6.507a1.5 1.5 0 1 1-1.222 2.742 1.5 1.5 0 0 1 1.222-2.742zm-7.309-3.254a1.5 1.5 0 1 1-1.221 2.742 1.5 1.5 0 0 1 1.221-2.742zm14.617 6.508a1.5 1.5 0 1 1-1.221 2.741 1.5 1.5 0 0 1 1.221-2.74zm14.617 6.508a1.5 1.5 0 1 1-1.222 2.741 1.5 1.5 0 0 1 1.222-2.741zm-7.308-3.254a1.5 1.5 0 1 1-1.222 2.741 1.5 1.5 0 0 1 1.222-2.74zm14.616 6.508a1.5 1.5 0 1 1-1.221 2.741 1.5 1.5 0 0 1 1.221-2.741zm14.617 6.508a1.5 1.5 0 1 1-1.222 2.74 1.5 1.5 0 0 1 1.222-2.74zM1584.93 285a1.5 1.5 0 1 1-1.222 2.741 1.5 1.5 0 0 1 1.222-2.741zm14.616 6.508a1.5 1.5 0 1 1-1.221 2.74 1.5 1.5 0 0 1 1.221-2.74zm14.617 6.507a1.5 1.5 0 1 1-1.222 2.742 1.5 1.5 0 0 1 1.222-2.742zm-7.308-3.254a1.5 1.5 0 1 1-1.222 2.742 1.5 1.5 0 0 1 1.222-2.742zm14.616 6.508a1.5 1.5 0 1 1-1.221 2.741 1.5 1.5 0 0 1 1.221-2.74zm14.617 6.508a1.5 1.5 0 1 1-1.221 2.741 1.5 1.5 0 0 1 1.221-2.74zm-7.308-3.254a1.5 1.5 0 1 1-1.222 2.741 1.5 1.5 0 0 1 1.222-2.74zm14.617 6.508a1.5 1.5 0 1 1-1.222 2.741 1.5 1.5 0 0 1 1.222-2.741zm14.616 6.508a1.5 1.5 0 1 1-1.221 2.74 1.5 1.5 0 0 1 1.221-2.74zm-7.308-3.254a1.5 1.5 0 1 1-1.222 2.741 1.5 1.5 0 0 1 1.222-2.741zm14.617 6.508a1.5 1.5 0 1 1-1.222 2.74 1.5 1.5 0 0 1 1.222-2.74zm14.616 6.507a1.5 1.5 0 1 1-1.221 2.742 1.5 1.5 0 0 1 1.221-2.742zm-7.308-3.253a1.5 1.5 0 1 1-1.222 2.74 1.5 1.5 0 0 1 1.222-2.74zm14.617 6.507a1.5 1.5 0 1 1-1.222 2.742 1.5 1.5 0 0 1 1.222-2.742zm14.616 6.508a1.5 1.5 0 1 1-1.221 2.741 1.5 1.5 0 0 1 1.221-2.74zm-7.308-3.254a1.5 1.5 0 1 1-1.222 2.741 1.5 1.5 0 0 1 1.222-2.74zm14.617 6.508a1.5 1.5 0 1 1-1.222 2.741 1.5 1.5 0 0 1 1.222-2.741zm7.308 3.254a1.5 1.5 0 1 1-1.221 2.741 1.5 1.5 0 0 1 1.221-2.741zm-65.375-20.35a1.5 1.5 0 1 1-1.221 2.741 1.5 1.5 0 0 1 1.221-2.74zm-7.308-3.254a1.5 1.5 0 1 1-1.222 2.741 1.5 1.5 0 0 1 1.222-2.74zm14.617 6.508a1.5 1.5 0 1 1-1.222 2.741 1.5 1.5 0 0 1 1.222-2.74zm14.616 6.508a1.5 1.5 0 1 1-1.221 2.741 1.5 1.5 0 0 1 1.221-2.741zm-7.308-3.254a1.5 1.5 0 1 1-1.222 2.741 1.5 1.5 0 0 1 1.222-2.741zm14.617 6.508a1.5 1.5 0 1 1-1.222 2.74 1.5 1.5 0 0 1 1.222-2.74zm14.616 6.508a1.5 1.5 0 1 1-1.221 2.74 1.5 1.5 0 0 1 1.221-2.74zm-7.308-3.254a1.5 1.5 0 1 1-1.222 2.74 1.5 1.5 0 0 1 1.222-2.74zm14.617 6.507a1.5 1.5 0 1 1-1.222 2.742 1.5 1.5 0 0 1 1.222-2.742zm7.308 3.254a1.5 1.5 0 1 1-1.222 2.741 1.5 1.5 0 0 1 1.222-2.74zm-175.4-78.093a1.5 1.5 0 1 1-1.222 2.741 1.5 1.5 0 0 1 1.221-2.741zm14.616 6.508a1.5 1.5 0 1 1-1.222 2.74 1.5 1.5 0 0 1 1.222-2.74zm-7.308-3.254a1.5 1.5 0 1 1-1.222 2.741 1.5 1.5 0 0 1 1.222-2.741zm14.617 6.508a1.5 1.5 0 1 1-1.222 2.74 1.5 1.5 0 0 1 1.222-2.74zm14.616 6.507a1.5 1.5 0 1 1-1.221 2.742 1.5 1.5 0 0 1 1.221-2.742zm-7.308-3.254a1.5 1.5 0 1 1-1.222 2.742 1.5 1.5 0 0 1 1.222-2.742zm14.617 6.508a1.5 1.5 0 1 1-1.222 2.741 1.5 1.5 0 0 1 1.222-2.74zm14.616 6.508a1.5 1.5 0 1 1-1.221 2.741 1.5 1.5 0 0 1 1.221-2.741zm-7.308-3.254a1.5 1.5 0 1 1-1.222 2.741 1.5 1.5 0 0 1 1.222-2.74zm14.617 6.508a1.5 1.5 0 1 1-1.222 2.741 1.5 1.5 0 0 1 1.222-2.741zm14.616 6.508a1.5 1.5 0 1 1-1.221 2.74 1.5 1.5 0 0 1 1.221-2.74zm-7.308-3.254a1.5 1.5 0 1 1-1.222 2.741 1.5 1.5 0 0 1 1.222-2.741zm14.617 6.508a1.5 1.5 0 1 1-1.222 2.74 1.5 1.5 0 0 1 1.222-2.74zm14.617 6.507a1.5 1.5 0 1 1-1.222 2.742 1.5 1.5 0 0 1 1.222-2.742zm-7.309-3.254a1.5 1.5 0 1 1-1.222 2.742 1.5 1.5 0 0 1 1.222-2.742zm-101.917-36.619a1.5 1.5 0 1 1-1.221 2.741 1.5 1.5 0 0 1 1.221-2.74zm14.617 6.508a1.5 1.5 0 1 1-1.222 2.741 1.5 1.5 0 0 1 1.222-2.74zm-7.308-3.254a1.5 1.5 0 1 1-1.222 2.741 1.5 1.5 0 0 1 1.222-2.74zm14.616 6.508a1.5 1.5 0 1 1-1.221 2.741 1.5 1.5 0 0 1 1.221-2.741zm14.617 6.508a1.5 1.5 0 1 1-1.221 2.74 1.5 1.5 0 0 1 1.221-2.74zm-7.308-3.254a1.5 1.5 0 1 1-1.222 2.741 1.5 1.5 0 0 1 1.222-2.741zm14.617 6.508a1.5 1.5 0 1 1-1.222 2.74 1.5 1.5 0 0 1 1.222-2.74zm14.616 6.507a1.5 1.5 0 1 1-1.221 2.742 1.5 1.5 0 0 1 1.221-2.742zm-7.308-3.253a1.5 1.5 0 1 1-1.222 2.74 1.5 1.5 0 0 1 1.222-2.74zm14.617 6.507a1.5 1.5 0 1 1-1.222 2.742 1.5 1.5 0 0 1 1.222-2.742zm14.616 6.508a1.5 1.5 0 1 1-1.221 2.741 1.5 1.5 0 0 1 1.221-2.74zm-7.308-3.254a1.5 1.5 0 1 1-1.222 2.741 1.5 1.5 0 0 1 1.222-2.74zm14.617 6.508a1.5 1.5 0 1 1-1.222 2.741 1.5 1.5 0 0 1 1.222-2.741zm14.616 6.508a1.5 1.5 0 1 1-1.221 2.741 1.5 1.5 0 0 1 1.221-2.741zm-7.308-3.254a1.5 1.5 0 1 1-1.222 2.741 1.5 1.5 0 0 1 1.222-2.741zm14.617 6.508a1.5 1.5 0 1 1-1.222 2.74 1.5 1.5 0 0 1 1.222-2.74zm14.617 6.507a1.5 1.5 0 1 1-1.222 2.742 1.5 1.5 0 0 1 1.222-2.742zm-7.309-3.253a1.5 1.5 0 1 1-1.221 2.74 1.5 1.5 0 0 1 1.221-2.74zm14.617 6.507a1.5 1.5 0 1 1-1.222 2.742 1.5 1.5 0 0 1 1.222-2.742zm14.617 6.508a1.5 1.5 0 1 1-1.222 2.741 1.5 1.5 0 0 1 1.222-2.74zm-7.309-3.254a1.5 1.5 0 1 1-1.221 2.741 1.5 1.5 0 0 1 1.221-2.74zm14.617 6.508a1.5 1.5 0 1 1-1.222 2.741 1.5 1.5 0 0 1 1.222-2.741zm14.617 6.508a1.5 1.5 0 1 1-1.222 2.741 1.5 1.5 0 0 1 1.222-2.741zm-7.309-3.254a1.5 1.5 0 1 1-1.221 2.741 1.5 1.5 0 0 1 1.221-2.741zm14.617 6.508a1.5 1.5 0 1 1-1.222 2.74 1.5 1.5 0 0 1 1.222-2.74zm7.308 3.254a1.5 1.5 0 1 1-1.221 2.74 1.5 1.5 0 0 1 1.221-2.74zm-65.375-20.35a1.5 1.5 0 1 1-1.221 2.741 1.5 1.5 0 0 1 1.221-2.741zm-7.308-3.254a1.5 1.5 0 1 1-1.222 2.741 1.5 1.5 0 0 1 1.222-2.741zm14.617 6.508a1.5 1.5 0 1 1-1.222 2.741 1.5 1.5 0 0 1 1.222-2.741zm14.617 6.508a1.5 1.5 0 1 1-1.222 2.74 1.5 1.5 0 0 1 1.222-2.74zm-7.309-3.254a1.5 1.5 0 1 1-1.221 2.74 1.5 1.5 0 0 1 1.221-2.74zm14.617 6.507a1.5 1.5 0 1 1-1.222 2.742 1.5 1.5 0 0 1 1.222-2.742zm14.617 6.508a1.5 1.5 0 1 1-1.222 2.741 1.5 1.5 0 0 1 1.222-2.74zm-7.309-3.254a1.5 1.5 0 1 1-1.221 2.742 1.5 1.5 0 0 1 1.221-2.742zm14.617 6.508a1.5 1.5 0 1 1-1.222 2.741 1.5 1.5 0 0 1 1.222-2.74zm7.308 3.254a1.5 1.5 0 1 1-1.221 2.741 1.5 1.5 0 0 1 1.221-2.741zm-175.4-78.093a1.5 1.5 0 1 1-1.222 2.74 1.5 1.5 0 0 1 1.222-2.74zm14.616 6.507a1.5 1.5 0 1 1-1.221 2.742 1.5 1.5 0 0 1 1.221-2.742zm-7.308-3.254a1.5 1.5 0 1 1-1.222 2.742 1.5 1.5 0 0 1 1.222-2.742zm14.617 6.508a1.5 1.5 0 1 1-1.222 2.741 1.5 1.5 0 0 1 1.222-2.74zm14.616 6.508a1.5 1.5 0 1 1-1.221 2.741 1.5 1.5 0 0 1 1.221-2.74zm-7.308-3.254a1.5 1.5 0 1 1-1.222 2.741 1.5 1.5 0 0 1 1.222-2.74zm14.617 6.508a1.5 1.5 0 1 1-1.222 2.741 1.5 1.5 0 0 1 1.222-2.741zm14.617 6.508a1.5 1.5 0 1 1-1.222 2.74 1.5 1.5 0 0 1 1.222-2.74zm-7.309-3.254a1.5 1.5 0 1 1-1.221 2.741 1.5 1.5 0 0 1 1.221-2.741zm14.617 6.508a1.5 1.5 0 1 1-1.222 2.74 1.5 1.5 0 0 1 1.222-2.74zm14.617 6.507a1.5 1.5 0 1 1-1.222 2.742 1.5 1.5 0 0 1 1.222-2.742zm-7.309-3.253a1.5 1.5 0 1 1-1.221 2.74 1.5 1.5 0 0 1 1.221-2.74zm14.617 6.507a1.5 1.5 0 1 1-1.222 2.742 1.5 1.5 0 0 1 1.222-2.742zm14.617 6.508a1.5 1.5 0 1 1-1.222 2.741 1.5 1.5 0 0 1 1.222-2.74zm-7.309-3.254a1.5 1.5 0 1 1-1.221 2.741 1.5 1.5 0 0 1 1.221-2.74zm-101.916-36.619a1.5 1.5 0 1 1-1.222 2.741 1.5 1.5 0 0 1 1.222-2.741zm14.616 6.508a1.5 1.5 0 1 1-1.221 2.741 1.5 1.5 0 0 1 1.221-2.741zm-7.308-3.254a1.5 1.5 0 1 1-1.222 2.741 1.5 1.5 0 0 1 1.222-2.741zm14.617 6.508a1.5 1.5 0 1 1-1.222 2.74 1.5 1.5 0 0 1 1.222-2.74zm14.616 6.507a1.5 1.5 0 1 1-1.221 2.742 1.5 1.5 0 0 1 1.221-2.742zm-7.308-3.253a1.5 1.5 0 1 1-1.222 2.74 1.5 1.5 0 0 1 1.222-2.74zm14.617 6.507a1.5 1.5 0 1 1-1.222 2.742 1.5 1.5 0 0 1 1.222-2.742zm14.616 6.508a1.5 1.5 0 1 1-1.221 2.741 1.5 1.5 0 0 1 1.221-2.74zm-7.308-3.254a1.5 1.5 0 1 1-1.222 2.741 1.5 1.5 0 0 1 1.222-2.74zm14.617 6.508a1.5 1.5 0 1 1-1.222 2.741 1.5 1.5 0 0 1 1.222-2.74zm14.617 6.508a1.5 1.5 0 1 1-1.222 2.741 1.5 1.5 0 0 1 1.222-2.741zm-7.309-3.254a1.5 1.5 0 1 1-1.221 2.741 1.5 1.5 0 0 1 1.221-2.741zm14.617 6.508a1.5 1.5 0 1 1-1.222 2.74 1.5 1.5 0 0 1 1.222-2.74zm14.617 6.508a1.5 1.5 0 1 1-1.222 2.74 1.5 1.5 0 0 1 1.222-2.74zm-7.309-3.254a1.5 1.5 0 1 1-1.221 2.74 1.5 1.5 0 0 1 1.221-2.74zm14.617 6.507a1.5 1.5 0 1 1-1.222 2.742 1.5 1.5 0 0 1 1.222-2.742zm14.617 6.508a1.5 1.5 0 1 1-1.222 2.741 1.5 1.5 0 0 1 1.222-2.74zm-7.309-3.254a1.5 1.5 0 1 1-1.221 2.741 1.5 1.5 0 0 1 1.221-2.74zm14.617 6.508a1.5 1.5 0 1 1-1.222 2.741 1.5 1.5 0 0 1 1.222-2.74zm14.617 6.508a1.5 1.5 0 1 1-1.222 2.741 1.5 1.5 0 0 1 1.222-2.741zm-7.309-3.254a1.5 1.5 0 1 1-1.221 2.741 1.5 1.5 0 0 1 1.221-2.741zm14.617 6.508a1.5 1.5 0 1 1-1.221 2.741 1.5 1.5 0 0 1 1.221-2.741zm14.617 6.508a1.5 1.5 0 1 1-1.222 2.74 1.5 1.5 0 0 1 1.222-2.74zm-7.308-3.254a1.5 1.5 0 1 1-1.222 2.74 1.5 1.5 0 0 1 1.222-2.74zm14.616 6.507a1.5 1.5 0 1 1-1.221 2.742 1.5 1.5 0 0 1 1.221-2.742zm7.309 3.254a1.5 1.5 0 1 1-1.222 2.742 1.5 1.5 0 0 1 1.222-2.742zm-65.375-20.35a1.5 1.5 0 1 1-1.222 2.742 1.5 1.5 0 0 1 1.222-2.741zm-7.309-3.253a1.5 1.5 0 1 1-1.221 2.74 1.5 1.5 0 0 1 1.221-2.74zm14.617 6.508a1.5 1.5 0 1 1-1.222 2.74 1.5 1.5 0 0 1 1.222-2.74zm14.617 6.507a1.5 1.5 0 1 1-1.222 2.741 1.5 1.5 0 0 1 1.222-2.74zm-7.309-3.254a1.5 1.5 0 1 1-1.221 2.742 1.5 1.5 0 0 1 1.221-2.742zm14.617 6.508a1.5 1.5 0 1 1-1.222 2.741 1.5 1.5 0 0 1 1.222-2.74zm14.617 6.508a1.5 1.5 0 1 1-1.222 2.741 1.5 1.5 0 0 1 1.222-2.741zm-7.309-3.254a1.5 1.5 0 1 1-1.221 2.741 1.5 1.5 0 0 1 1.221-2.74zm14.617 6.508a1.5 1.5 0 1 1-1.221 2.741 1.5 1.5 0 0 1 1.221-2.741zm7.309 3.254a1.5 1.5 0 1 1-1.222 2.741 1.5 1.5 0 0 1 1.222-2.741zm-175.401-78.094a1.5 1.5 0 1 1-1.222 2.742 1.5 1.5 0 0 1 1.222-2.742zm14.617 6.508a1.5 1.5 0 1 1-1.222 2.741 1.5 1.5 0 0 1 1.222-2.74zm-7.309-3.254a1.5 1.5 0 1 1-1.221 2.741 1.5 1.5 0 0 1 1.221-2.74zm14.617 6.508a1.5 1.5 0 1 1-1.222 2.741 1.5 1.5 0 0 1 1.222-2.741zm14.617 6.508a1.5 1.5 0 1 1-1.222 2.741 1.5 1.5 0 0 1 1.222-2.741zm-7.309-3.254a1.5 1.5 0 1 1-1.221 2.741 1.5 1.5 0 0 1 1.221-2.741zm14.617 6.508a1.5 1.5 0 1 1-1.222 2.74 1.5 1.5 0 0 1 1.222-2.74zm14.617 6.507a1.5 1.5 0 1 1-1.222 2.742 1.5 1.5 0 0 1 1.222-2.742zm-7.309-3.253a1.5 1.5 0 1 1-1.221 2.74 1.5 1.5 0 0 1 1.221-2.74zm14.617 6.507a1.5 1.5 0 1 1-1.222 2.742 1.5 1.5 0 0 1 1.222-2.742zm14.617 6.508a1.5 1.5 0 1 1-1.222 2.741 1.5 1.5 0 0 1 1.222-2.74zm-7.309-3.254a1.5 1.5 0 1 1-1.221 2.741 1.5 1.5 0 0 1 1.221-2.74zm14.617 6.508a1.5 1.5 0 1 1-1.221 2.741 1.5 1.5 0 0 1 1.221-2.741zm14.617 6.508a1.5 1.5 0 1 1-1.222 2.741 1.5 1.5 0 0 1 1.222-2.741zm-7.308-3.254a1.5 1.5 0 1 1-1.222 2.741 1.5 1.5 0 0 1 1.222-2.741zm-101.917-36.62a1.5 1.5 0 1 1-1.222 2.742 1.5 1.5 0 0 1 1.222-2.741zm14.617 6.509a1.5 1.5 0 1 1-1.222 2.74 1.5 1.5 0 0 1 1.222-2.74zm-7.309-3.254a1.5 1.5 0 1 1-1.222 2.74 1.5 1.5 0 0 1 1.222-2.74zm14.617 6.507a1.5 1.5 0 1 1-1.222 2.742 1.5 1.5 0 0 1 1.222-2.742zm14.617 6.508a1.5 1.5 0 1 1-1.222 2.741 1.5 1.5 0 0 1 1.222-2.74zm-7.309-3.254a1.5 1.5 0 1 1-1.221 2.742 1.5 1.5 0 0 1 1.221-2.742zm14.617 6.508a1.5 1.5 0 1 1-1.222 2.741 1.5 1.5 0 0 1 1.222-2.74zm14.617 6.508a1.5 1.5 0 1 1-1.222 2.741 1.5 1.5 0 0 1 1.222-2.741zm-7.309-3.254a1.5 1.5 0 1 1-1.221 2.741 1.5 1.5 0 0 1 1.221-2.741zm14.617 6.508a1.5 1.5 0 1 1-1.222 2.741 1.5 1.5 0 0 1 1.222-2.741zm14.617 6.508a1.5 1.5 0 1 1-1.222 2.74 1.5 1.5 0 0 1 1.222-2.74zm-7.309-3.254a1.5 1.5 0 1 1-1.221 2.74 1.5 1.5 0 0 1 1.221-2.74zm14.617 6.507a1.5 1.5 0 1 1-1.222 2.742 1.5 1.5 0 0 1 1.222-2.742zm14.617 6.508a1.5 1.5 0 1 1-1.222 2.741 1.5 1.5 0 0 1 1.222-2.74zm-7.308-3.254a1.5 1.5 0 1 1-1.222 2.742 1.5 1.5 0 0 1 1.222-2.742zm14.616 6.508a1.5 1.5 0 1 1-1.221 2.741 1.5 1.5 0 0 1 1.221-2.74zm14.617 6.508a1.5 1.5 0 1 1-1.222 2.741 1.5 1.5 0 0 1 1.222-2.741zm-7.308-3.254a1.5 1.5 0 1 1-1.222 2.741 1.5 1.5 0 0 1 1.222-2.741zm14.616 6.508a1.5 1.5 0 1 1-1.221 2.741 1.5 1.5 0 0 1 1.221-2.741zm14.617 6.508a1.5 1.5 0 1 1-1.222 2.74 1.5 1.5 0 0 1 1.222-2.74zm-7.308-3.254a1.5 1.5 0 1 1-1.222 2.74 1.5 1.5 0 0 1 1.222-2.74zm14.616 6.508a1.5 1.5 0 1 1-1.221 2.74 1.5 1.5 0 0 1 1.221-2.74zm14.617 6.507a1.5 1.5 0 1 1-1.222 2.741 1.5 1.5 0 0 1 1.222-2.74zm-7.308-3.254a1.5 1.5 0 1 1-1.222 2.742 1.5 1.5 0 0 1 1.222-2.742zm14.617 6.508a1.5 1.5 0 1 1-1.222 2.741 1.5 1.5 0 0 1 1.222-2.74zm7.308 3.254a1.5 1.5 0 1 1-1.222 2.741 1.5 1.5 0 0 1 1.222-2.74zm-189.217-66.73a1.5 1.5 0 1 1-1.222 2.74 1.5 1.5 0 0 1 1.222-2.74zm14.617 6.507a1.5 1.5 0 1 1-1.222 2.741 1.5 1.5 0 0 1 1.222-2.74zm-7.309-3.254a1.5 1.5 0 1 1-1.221 2.742 1.5 1.5 0 0 1 1.221-2.742zm14.617 6.508a1.5 1.5 0 1 1-1.222 2.741 1.5 1.5 0 0 1 1.222-2.74zm14.617 6.508a1.5 1.5 0 1 1-1.222 2.741 1.5 1.5 0 0 1 1.222-2.741zm-7.309-3.254a1.5 1.5 0 1 1-1.221 2.741 1.5 1.5 0 0 1 1.221-2.741zm14.617 6.508a1.5 1.5 0 1 1-1.221 2.741 1.5 1.5 0 0 1 1.221-2.741zm14.617 6.508a1.5 1.5 0 1 1-1.222 2.74 1.5 1.5 0 0 1 1.222-2.74zm-7.308-3.254a1.5 1.5 0 1 1-1.222 2.74 1.5 1.5 0 0 1 1.222-2.74zm14.616 6.508a1.5 1.5 0 1 1-1.221 2.74 1.5 1.5 0 0 1 1.221-2.74zm14.617 6.507a1.5 1.5 0 1 1-1.222 2.741 1.5 1.5 0 0 1 1.222-2.74zm-7.308-3.254a1.5 1.5 0 1 1-1.222 2.742 1.5 1.5 0 0 1 1.222-2.742zm14.616 6.508a1.5 1.5 0 1 1-1.221 2.741 1.5 1.5 0 0 1 1.221-2.74zm14.617 6.508a1.5 1.5 0 1 1-1.222 2.741 1.5 1.5 0 0 1 1.222-2.741zm-7.308-3.254a1.5 1.5 0 1 1-1.222 2.741 1.5 1.5 0 0 1 1.222-2.74zm14.616 6.508a1.5 1.5 0 1 1-1.221 2.741 1.5 1.5 0 0 1 1.221-2.741zm14.617 6.508a1.5 1.5 0 1 1-1.221 2.74 1.5 1.5 0 0 1 1.221-2.74zm-7.308-3.254a1.5 1.5 0 1 1-1.222 2.741 1.5 1.5 0 0 1 1.222-2.741zm14.617 6.508a1.5 1.5 0 1 1-1.222 2.74 1.5 1.5 0 0 1 1.222-2.74zm14.616 6.507a1.5 1.5 0 1 1-1.221 2.742 1.5 1.5 0 0 1 1.221-2.742zm-7.308-3.254a1.5 1.5 0 1 1-1.222 2.742 1.5 1.5 0 0 1 1.222-2.742zm14.617 6.508a1.5 1.5 0 1 1-1.222 2.741 1.5 1.5 0 0 1 1.222-2.74zm14.616 6.508a1.5 1.5 0 1 1-1.221 2.741 1.5 1.5 0 0 1 1.221-2.741zm-7.308-3.254a1.5 1.5 0 1 1-1.222 2.741 1.5 1.5 0 0 1 1.222-2.74zm14.617 6.508a1.5 1.5 0 1 1-1.222 2.741 1.5 1.5 0 0 1 1.222-2.741zm7.308 3.254a1.5 1.5 0 1 1-1.222 2.741 1.5 1.5 0 0 1 1.222-2.741zm-58.867-34.967a1.5 1.5 0 1 1-1.222 2.742 1.5 1.5 0 0 1 1.222-2.742zm-7.308-3.254a1.5 1.5 0 1 1-1.222 2.742 1.5 1.5 0 0 1 1.222-2.742zm14.616 6.508a1.5 1.5 0 1 1-1.221 2.741 1.5 1.5 0 0 1 1.221-2.74zm14.617 6.508a1.5 1.5 0 1 1-1.222 2.741 1.5 1.5 0 0 1 1.222-2.741zm-7.308-3.254a1.5 1.5 0 1 1-1.222 2.741 1.5 1.5 0 0 1 1.222-2.74zm14.616 6.508a1.5 1.5 0 1 1-1.221 2.741 1.5 1.5 0 0 1 1.221-2.741zm14.617 6.508a1.5 1.5 0 1 1-1.222 2.74 1.5 1.5 0 0 1 1.222-2.74zm-7.308-3.254a1.5 1.5 0 1 1-1.222 2.741 1.5 1.5 0 0 1 1.222-2.741zm14.616 6.508a1.5 1.5 0 1 1-1.221 2.74 1.5 1.5 0 0 1 1.221-2.74zm7.309 3.253a1.5 1.5 0 1 1-1.222 2.742 1.5 1.5 0 0 1 1.222-2.742zm-175.4-78.093a1.5 1.5 0 1 1-1.223 2.741 1.5 1.5 0 0 1 1.222-2.74zm14.616 6.508a1.5 1.5 0 1 1-1.222 2.741 1.5 1.5 0 0 1 1.222-2.741zm-7.309-3.254a1.5 1.5 0 1 1-1.221 2.741 1.5 1.5 0 0 1 1.221-2.741zm14.617 6.508a1.5 1.5 0 1 1-1.222 2.74 1.5 1.5 0 0 1 1.222-2.74zm14.617 6.508a1.5 1.5 0 1 1-1.222 2.74 1.5 1.5 0 0 1 1.222-2.74zm-7.308-3.254a1.5 1.5 0 1 1-1.222 2.74 1.5 1.5 0 0 1 1.222-2.74zm14.616 6.507a1.5 1.5 0 1 1-1.221 2.742 1.5 1.5 0 0 1 1.221-2.742zm14.617 6.508a1.5 1.5 0 1 1-1.222 2.741 1.5 1.5 0 0 1 1.222-2.74zm-7.308-3.254a1.5 1.5 0 1 1-1.222 2.741 1.5 1.5 0 0 1 1.222-2.74zm14.616 6.508a1.5 1.5 0 1 1-1.221 2.741 1.5 1.5 0 0 1 1.221-2.74zm14.617 6.508a1.5 1.5 0 1 1-1.222 2.741 1.5 1.5 0 0 1 1.222-2.741zm-7.308-3.254a1.5 1.5 0 1 1-1.222 2.741 1.5 1.5 0 0 1 1.222-2.741zm14.616 6.508a1.5 1.5 0 1 1-1.221 2.741 1.5 1.5 0 0 1 1.221-2.741zm14.617 6.508a1.5 1.5 0 1 1-1.222 2.74 1.5 1.5 0 0 1 1.222-2.74zm-7.308-3.254a1.5 1.5 0 1 1-1.222 2.74 1.5 1.5 0 0 1 1.222-2.74z" fill="#72D6D8"/><path d="M1566.893 114.108c-.557.388-1.135.402-1.686-.33.311-1.145 1.502-2.19 1.407-3.348.587-.285 1.866 1.016 1.995 1.224-.564.592-.168-.04-.568-.257-.916.919-1.557 1.78-1.148 2.71zm6.03-9.447c1.011-.746 2.017.614 2.29 1.54-1.06 1.186-1.877 1.225-2.577 1.812-.467-.22-1.265-.723-1.244-1.334.88-.886 2.132-.74 1.531-2.018zm20.204-15.051c-.52.287-.988.067-1.441-.56-.971.577-.18 1.284-.95 1.937-.672-.228-.99-.85-1.376-1.475.824-.243.73-1.469 1.79-1.67.618.803 1.256.995 1.895.203-.255.5-.138 1.048.082 1.565zm-14.295 10.703l.982 1.053c-.756.245-1.186.91-1.65 1.538-.828-.606-.923-.78-.963-1.596.539-.83 1.058-.132 1.631-.995zm-17.121 17.774l-1.825 1.702c-.543-.019-1.039-.41-1.535-.8.693-.384 1.666-1.03 1.931-1.801.468.22.968.475 1.429.899zm-8.983 6.067c.513-.154 1.05-.07 1.569.485-.316.295.213.58-.305.87-.843-.06-1.091-.607-1.264-1.355zm17.094-14.278c.648-.08 1.26-1.043 1.075-1.593-.67-.295-1.867.954-1.075 1.593zm3.169 1.433c.388.557.771.264 1.122.922.686-.18.597-.557 1.338-.395-.026.746-.148 1.32.856 1.762-1.028 1.22-1.867-.031-2.871 1.496-.807-1.217-2.21-1.877-2.535-3.28.716-.078 1.385.217 2.09-.505zm18.459-10.705c-1.355.87-2.242.975-2.563 2.39-2.151-1.603-4.375.798-6.5-1.551.157-.606.517-1.205.473-1.886 1.409-.46 3.165.79 4.053 1.602 1.144.312 1.473-1.307 2.523-1.236.056-.643-.362-1.303.375-1.99 1.071.444 1.363 1.813 1.639 2.671zm4.769-9.03c-.83-.538-.774-1.182-1.558-1.107-.664-.43.71-.858-.123-1.329.52-.287 1.001-.474 1.488-.797 1.139.447 2.4 1.306 2.706 2.268-.838.65-1.645.418-2.513.965zm-6.317 2.107c1.095-.233 2.327 1.44 2.565 2.4-.868.546-1.21 1.587-1.825 1.701-1.438-1.612-2.596-2.501-.74-4.1zm-21.017 24.76c-1.462.052-2.022 1.493-2.962 2.173-1.102.437-2.257-1.505-2.566-2.4.705-.722 2.131.245 1.674-1.231.652-.215 1.23.756 1.854 1.355.099-.88 1.075-1.593 1.93-1.8.555.664-.313 1.211.07 1.904zm7.479-12.06c1.298-.227 3.053-.878 3.759 1.286-.976.713-1.278.6-2.088 1.421-.266-1.13-1.442-1.477-1.671-2.707zm57.78-50.776l-.737.687c-.496-.25-.326-.28-.982-.772.437-.798 1.285-.874 1.66-1.808 1.064.437.656 1.336 1.793 1.64-.01.27-.321.43-.13.706-.545.119-1.071-.235-1.603-.453zm-6.838 4.695c.66-.42 1.21 1.015 1.85 1.068-.127.638-.422 1.237-.784 1.834-1.11-.978-.869-1.917-1.066-2.902zm-49.91 53.579c-.518-.766-1.067-.581-1.584-1.346.267-.84 1.446-1.546 2.097-1.693.426-.528-.278-.79-.643-1.041.044-.304.19-.571.606-.828.145.718 1.469.73 2.135 1.093.185.55.435 1.17.21 1.774-.388-.557-.772-.265-1.122-.923-.457.426.034.953.221 1.435-1.032 1.356-.639.792-1.92 1.529zm-17.895 13.864c.248.687.79.706.806 1.216-.463.63-.96-.678-1.393-.931.17-.028.376-.089.587-.285zm27.114-20.826c-.225-.382-.466-.288-.73-.501-.168-1.025-.972-1.325-1.18-2.181 1.355-.87 3.204 1.606 1.91 2.682zm-4.747.894c1.065-1.321 2.165-3.66 3.5-1.033-.279.194-.574.863-.824.243-.384.293.42.592.512.901-1.07.472-2.139.944-3.188-.111zm-15.505 14.35c.872 1.287-.563 2.493-.437 3.754-.86.344-1.693-.127-2.591-.668-.55-1.785 3.072-1.42 2.31-2.942.24-.093.47.153.718-.144zm27.956-27.253c.51.969 1.135.583 1.7.908-.797.482-1.586.692-2.306-.08.381-.224.052-.508.606-.828zm.426 7.86c-4.011-2.823 1.328-3.995 3.128-2.064-.133.912-1.298 1.21-1.944 1.222-.667.622.563 1.378-.647 1.981 1.493.053 2.645 2.063 1.075 3.264-1.37-.625-1.835-2.883-2.761-3.594.306-.023.674.16.999-.407.073-.133.01-.271.15-.402zm-7.78 2.61c2.073-2 4.786.065 4.411 2.056-1.47.254-3.478-.563-4.411-2.056zm-15.24 19.2c-.63.521.607 1.074-.19 1.555-1.08-.241-1.682-1.45-2.204-2.08.839-2.62 3.04-1.456 4.654-.992.622.667-1.03 1.288-.41 2.023-.279.194-.64-.192-1 .407-.598-.361-.327-.351-.85-.913zm-7.063 6.388c-1.518-.29-.413-1.78-1.421-2.087.61.021 1.076-.676.65-1.132 1.161-.164 2.407 1.103 2.543 2.092-.904.58-1.035.44-1.772 1.127zm15.515-12.149c-1.116.844-1.407 1.378-2.368 1.684-.68-.941-1.324-.998-1.974-1.835.866-.48.7-1.572 1.374-2.398 1.067.581 1.937 1.936 2.968 2.55zm1.328-7.272c1.598-.046 1.12-1.897 2.423-2.259.142.786.862 1.559 1.683 2.368-.208.129-.248.297-.185.435-.389.428-.733.552-1.058.133-.285.398.178.754-.311 1.144-.896-.608-2.524-.665-2.552-1.821zm50.794-46.166c.537.928-.821 1.935.645 2.452 1.156-.169.31-2.693-.645-2.452zm6.932-6.178c.977.907 1.506 1.193 1.498 2.24-.694.453-1.612-.25-1.93.956-.962-.467-.908-.972-1.383-1.763.6-.624 1.197-1.18 1.815-1.433zM1598.82 97.13c-.073-.852 1.04-.643 1.509-1.408.014.578-.178 1.217-.943 1.733-.162-.243-.391-.489-.566-.325zm-12.629 15.197c1.124-1.048 1.711-2.318 2.944-1.63.739 1.215-.235 1.86.92 2.818-1.326 1.04-2.608-.193-3.864-1.188zm-17.598 16.624c1.09-1.083 2.169-.841 3.243-.464.542 1.003-.82 3.062-2.18 3.082-.607-1.074-.275-1.844-1.063-2.618zm26.487-21.195c-1.217.806-2.1-1.126-.919-1.9.543.019 1.022.885 1.244 1.334-.278.194-.15.402-.325.566zm-18.82 17.831c-.87-.37-1.228-.824-1.506-1.614.967-.442.604-.76 1.206-1.453 1.546.462 1.426 1.952.3 3.067zm7.723-10.557c.723.704.835 1.387 1.389 2.052-.496.594-.964.374-1.479.526-.411-.864-.72-1.758.09-2.578zm-20.06 20.235c-.553.322-.226.602-.607.827.745.799.759-.383.608-.827zm34.737-30.33c1.029.681 2.079.752 3.157.993-.534 1.68-1.986 1.46-2.703 2.521-.479-.866-1.031-.613-1.57-.768-.497-1.308.331-1.687 1.116-2.746zm-8.427 13.25c.026.239-.323.499-.162.742-1.252.84-3.308.394-3.583-1.45.398-.699.774.197 1.188.008.522-.356-.547-.868.452-1.275.54 1.072 1.212 1.299 2.105 1.975zm-17.897 17.406c-.85.989-1.611-.532-2.066.81-.814-.028-1.534-.8-2.301-1.2.684-1.097.89-2.143 2.272-1.857.054 1.394 1.705.773 2.095 2.247zm73.074-68.799c-.672.757-1.347-.107-2.014.515-.348-.585-.753-.597-1.112-.912.51-.93.956-.242 1.485-.8.251-.364-.613-.728-.432-1.026.961.467 1.299 1.322 2.073 2.223zm-49.971 46.912c-1.074.608-2.091-.413-3.158-.993.407-.97 1.4-2.159 2.4-1.648.412.863.62 1.72.758 2.641zm10.903-12.323c-.784.075-1.528-.019-2.295-.42.821-.175.155-.537.887-1.09.475.017 1.392 1 1.408 1.51zm-.134-1.98l.456-.426c.393.42-.13.776.231 1.162-.386.36-.727-.568-.687-.737zm-40.373 42.454c-1.05.07-1.612.594-2.409 1.077-.094-.172-.262-.21-.4-.147-.666-1.067 1.265-1.179.363-2.286l.491-.459c1.013.03 1.3-.367 2.201-.948 1.145.946-.918 1.83-.246 2.763zm34.951-29.957c.082.58-.311 1.144-.365 1.72-.962.305-1.907.137-2.845-1.22 1.014-.814 1.295-2.061 2.369-1.684.117-.437-.58-.903-.666-1.348.213-.264.411-.121.552-.252.626.531.441.966.593 1.48.436-.799.705-.722 1.446-.56.496.391-.028.814.231 1.163-.42.393-.922 1.122-1.315.701zm-31.829 30.624c-.972-.198-1.169-1.184-2.238-1.485 1.313-.705 2.142-4.53 3.84-2.217-.332.7-.632 1.434.353 2.138-.645.083-1.258 1.044-1.955 1.564zm25.155-26.358a1.323 1.323 0 0 1-.018-.983c1.067-.404 1.375 1.474 1.494 1.954-.17.028-.41.053-.587.285-.151-.183-.32-.372-.474-.57-.295.608-.759 1.167-.24 1.786-.636.725-1.234.365-1.782.482-.456-.56-.776-1.114-1.13-1.704.7-.587 1.39-.902 2.098-1.693.214.307.426.356.639.443zm-18.323 19.652c-.196.775.69.67.83 1.524-1.42-.186-2.592-.668-3.377-2.496 1.463-1.035 3.265-2.06 4.211.012-.538.83-1.057.132-1.664.96zm41.394-42.016c.26.35-.43.665-.171 1.013-.412.122-1.018-.035-.968-.475.355-.463.75-.11 1.139-.538zm-34.781 33.075c.557-.388.734.365.959.747-.466-.288-1.477.457-.478 1.036-.592.42-.999.406-.616 1.099-.837.65-2.35.223-2.7-.502.181-.3.38-.156.544.019-.91-2.171 2.3-1.686 2.29-2.4zm8.062-3.936c-.686.18-1.33.123-2.003-.036.07-1.05 1.386-2.736 2.337-.801-.145.266-.157.605-.334.837zm-17.768 14.412c-.285.398-.52.287-.763.449-.028-.171-.053-.41-.285-.588l.492-.458.556.597zm8.313-.118c-.994-.714-2.496-1.48-3.048-.243-.648-.905.569-1.712-.247-2.657 2.403-1.716 3.731-.855 5.4.936.11.75-1.116 1.828-1.803 1.091-.281.262.217.585-.302.873zm31.079-31.019c-1.231 1.214-1.16-.821-2.135-1.093.505-.866.277-2.096 1.409-2.43.177.753 1.452 1.205 2.095 2.246-.452.29-.09.609-.606.828-.57-.19-.943-.236-1.123-.922-.491.458.444.899.36 1.371zm-35.546 32.836c1.39 2.969-2.454 4.125-3.707 2.078-1.508-2.532 2.408-1.852 3.707-2.078zm12.63-9.849c-.632 2.56-3.06.097-4.522 1.133.087-.54.445-1.071.157-1.59.485-.256 1.743-.314.651-1.133 1.28-.668 2.482.902 3.714 1.59zm4.402-8.494c.765.469.383 1.678 1.779 2.542-.553 1.237-.843.785-1.93 1.8-.597-.428-.38-.828-1.009-1.292-.626-.531-.667.622-1.172.503-.662-.499.948-.884.085-1.458 1.196-.196.916-1.903 2.247-2.095zm5.827-5.572c1.617-.589 1.31 1.404 2.226 2.387-.92 1.055-1.74.245-2.653 1.096-.419-.66-.898-.54-1.289-1.03.047-.372.263-.704.207-1.045.313-.227.58-.082.872.302.833-.514.176-1.149.637-1.71zm4.063-3.569c.36-2.5 2.535-1.576 3.917-.305-.09.608-.144 1.184-.333 1.755-1.444.493-2.522.251-3.584-1.45zm13.739-12.626c.227-.67.595-1.473 1.324-.972.695.534-.052 1.492-.768 1.57l-.556-.598zm-50.559 47.421c.802-.618 1.445-.633 1.955-1.563 1.09.606 2.746 1.466 2.972 2.554-.942-.096-1.892.856-2.773.053-.28.261-.324.497-.164.738-1.161-.541-1.426-.684-1.99-1.782zm64.477-56.891c-.791.278-1.065.336-1.5 1.136-.828-.606-.812-1.081-1.68-1.519.892-.24 1.694.127 2.61-.792.63.396.413.796.57 1.175zm13.003-12.029c-.818 1.023-2.044.412-2.095 1.694-.28-.582-.28-.582-.842-.903.294-.599 1.366-1.209 1.12-1.824.622-.32 1.718.152 1.817 1.033zm3.534-4.945c.694-.452 1.024-1.084 1.088-1.859 1.037.267 2.722 1.23 3.243 1.718-1.396.262-2.204 1.86-3.37 1.453.683.662.683 1.507 1.217 2.502-1.287.097-1.32-1.626-2.084-1.953.338-.835.592-1.266-.094-1.86zm-64.57 61.872c-.33-.284-.22-.518-.38-.76.521-.356 1.067-.405 1.619-.658.413.796-.775.788-1.238 1.418zm2.729 1.737c-.56-.529-1.158.096-1.733-.943.068-.983 1.881-1.361.822-2.145.31-.16.615-.115.926-.274.542 1.004 1.132.651 1.7.909-.538.83-.737 1.672-1.715 2.453zm6.52-7.22c-.622.317.248.687.1 1.022-.905.647-1.525-.087-2.121-.516-.49-1.511 2.686-2.045 2.156-3.389 1.07-.472 1.426.967 2.116 1.637-1.118.911-1.233 1.281-2.25 1.246zm-17.33 19.16c-.72.282-1.353.027-2.07.242-.387-1.328-.346-2.34.874-3.284 1.191.643 1.374 1.966 1.196 3.042zm5.505-5.464c-.889.172-1.747-.537-2.58-1.007-.041-.749.63-1.507 1.538-2.222 2.008-.1 1.593 2.06 1.042 3.229zm9.476-11.54l.878-.82c.73.502.306.962-.321 1.416l-.557-.597zm7.153-7.336c.421-.393.772.265 1.172-.502.454.627.636 1.245.072 1.836-.765-.468-.526-1.479-1.004-.442-.226-.314-.353-.59-.24-.892zm-15.726 24.758c-1.991.61-5.284-1.373-3.688-3.32.742.16 1.463-.052 2.22-.365.636 1.245 1.806 1.795 2.074 2.857-.517.22-.187.503-.606.828zm8.922-14.295c-.156-2.349 2.075-.097 3.26-1.924.458.492.1 1.023-.324 1.483.552.733 1.12.99 1.714 1.487-.524.423-.03.882-.826 1.295-.639-.192-.828-.606-1.263-.791-.25.365-.092.676-.171 1.013-1.173.502-2.353-1.678-2.86-2.715.175-.164.337.08.47.152zm44.806-41.153c1.478-.526 2.652 1.859 1.933 2.988-1.347-.318-1.393 1.956-2.791 1.16-.01-.714-.634-1.313-1.399-1.781.22-.468.036-1.018.497-1.58.524-.422 1.4-.188 1.448.357.25-.365.468-.765.312-1.144zm-47.287 48.782c-.501.73-.945-.168-1.435.222-.825.31.587.7-.17 1.013-1.252-.146-2.03-1.192-2.566-2.399.782-.992 1.152-1.862 2.282-2.128.703 1.247 1.497.901 2.231 1.267-.6.624.191 1.33-.342 2.025zm23.488-26.21c.952.95 1.662 1.994 2.118 2.553-.852 1.057-1.584.624-2.391 1.377-.436.8 1.096 1.668 1.203 2.487-.554.32-.379.157-.772.72-.229-.245-.563-.393-.802-.367-.161-1.229-1.169-2.52-1.056-3.807-.516-.765-1.104.505-1.59-.157.143-2.169 1.68-2.42 3.29-2.806zm-12.745 15.181c-.767-.4-2.267-1.234-2.095-2.246.91-.784 1.83-.854 2.358-1.412 1.35 1.235 2.392 3.48-.263 3.658zm7.515-6.275c-1.095.233-2.84 1.598-3.364.052-.473-.084-1.016.881-1.488.797.168-.945.789-2.18 1.88-2.278-.126-2.246 2.661-.382 3.274.556-.384.292-.496.594-.302.873zm24.668-23.163c-.622.318-1.256-.01-1.455.833-1.481-.392-2.397-2.36-.455-3.514.398.285.921.847 1.665.94.05.546.367 1.168.245 1.741zm-5.335 5.2c-.646.996-1.743.312-1.883-.542-.4-.218-.875.75-1.36 1.005-.425-.456.1-.88-.665-1.347.297-.737 1.457-.9 1.388-1.82.285-.397.568.258.882.031.331 1.2.93 1.56 1.638 2.672zm-51.28 47.28c-.124.57-.7.587-.607.826-.997-.435-1.131-1.284-2.098-1.616.184-1.21 1.053-.982 1.93-1.8.635.187 1.221.745 1.864.73-.648-.695.113-1.99 1.12-1.824.395.282.011.574.505.893 1.726-.895 3.543-.706 4.134 1.406-1.01.747-.635 1.501-.938 2.303-1.055.205-2.559-1.056-3.102-1.849-.629-.322-.418 1.17-1.018.105-.437.798-.37.8-.807 1.598-.321-.415-.645-.763-.983-.773zm42.05-41.734c-.513-.901 1.01-1.731 1.278-2.57 1.253.077.864 1.49 2.071 1.94-1.134.401-2.203-1.096-3.35.63zm33.328-29.096c-.051.437-.135.84-.759 1.227-.462-.284-1.417-.887-2.32-.305-.358-.315-.482-.589-.54-.86.644-.86 1.192-.202 1.77-1.13.631.255 1.236.34 1.849 1.068zm4.612-6.808c.802.226.826.463 1.439 1.19-.63.523-1.088 1.016-1.38 1.547-.931-.365-.953-.67-1.85-1.068.012-.27.53-.558.036-.877.67-.69 1.442.28 1.755-.792zm-12.492 12.311l-.556-.596c-.728.416-.11 1.218-.923 1.122-.984-.985.906-1.632 1.529-1.95.662.498.645.973-.05 1.424zm-72.348 70.986c-.661.487-.34-.787-1.017.104-.573-.895-1.126-.573-1.674-1.231.192-.569.629-.522 1.064-1.252.858.498 1.765 1.47 1.627 2.379zm18.905-6.917c-.668.525-.882.828-1.835 1.469-1.247-.282-1.962-1.19-2.951-2.04.596-2.784 3.123-1.896 4.552-.042a2.131 2.131 0 0 1-.054-.845c.94-.68 1.841-.207 2.808-.649 1.45 1.273.487 2.564.138 3.809-1.066.147-2.144-.693-2.658-1.702zm33.29-44.343c.465.288.023 1.292.675 1.077-.023-.307.16-1.659-.675-1.077zm.376 4.615c-.55.185-1.09.098-1.614-.464-.02-.374.4-.767.38-1.141.924-.206 1.024.817 1.234 1.605zm18.05-19.64c.536.222 1.605.735 1.647 1.484-1.023 1.085-2.022.507-3.016-.207.017-.475.836-.582 1.37-1.277zm-8.757 17.887c-1.523.83-3.044 1.592-4.513.862-.648 1.064-.931 1.394-2.13 1.657-.518-.697.49-1.375.107-2.068-.966-.543-1.169-1.535-1.543-2.499.992-.203 1.688 2.233 2.856 1.866.705-2.692 3.81-3.093 4.798-.274 1.457.085 2.67-1.57 3.847-2.209 1.335 1.643.16 3.198-1.457 4.772-.973-.34-1.038-1.395-1.965-2.107zm-2.986-6.16c.493.458.072.851.668 1.28-1.992 2.579-3.53-1.04-.668-1.28zm7.742-5.059c-.6.625-1.142.606-1.781 1.399-.292-.384-.592-.565-.873-.303-.425-.456-.105-.886-.362-1.303 1.004-.542 2.56-1.337 3.016.207zm-49.78 48.06c-.84.718-1.707.28-2.523-.665.012-1.324 1.329-1.109 2.192-1.52.328.351.18.686.643 1.041-.288.466-.612-.938-.968-.475.117.548.2 1.06.657 1.62zm5.513-9.429c-.036 1.018.739.23 1.134.583-.438.868-.976 1.698-1.816 1.431-.208.129-.134.913.285.588-.143 1.183-1.443.492-2.035-.072.61-.963 1.222-1.927 2.432-2.53zm17.796-15.825c-.087.54-.242 1.079.081 1.565-.536.763-1.027.236-1.621.725-.538-1.14.06-2.681 1.54-2.29zm-5.987 6.533c.531.358.145.718.678 1.009-.447.154-.868.547-1.284-.181.417-.257.054-.576.606-.828zm32.93-23.974c-.538 1.816-2.885 1.903-4.25 1.143-.212-2.69 2.647-2.863 4.25-1.143zm-41.231 35.669c.197-2.744 3.551-1.54 4.79.914-1.127.198-1.862.818-2.695 1.332-.72-.772-1.122-1.907-2.095-2.246zm18.376-18.725c.783-.075 1.064-.337 1.193-1.113 1.027-.236 2.526 1.582 2.661 2.572-.587.285-1.167.367-1.705.212-.211 1.181-1.346 1.583-2.23.635-.21-.788.29-1.518.08-2.306zm26.537-19.987c-3.9-1.155-1.032-5.47 1.56-2.832.045 1.598-1.375 1.412-1.56 2.832zm-28.57 26.664c-.625.386-.4.767-.923 1.123-.942-.237-1.941.17-2.917-.102-.53-.359-.112-.684-.643-1.042.33-.701 1.994-.677 1.04-1.56.489-.39 1.006-.61 1.488-.797 1.195.79.984 1.97 1.955 2.378zm35.947-36.117c1.995 2.209-2.544 3.817-2.653 1.096.599-.625 1.196-1.181 1.748-1.433.529.426.233 1.094.905.337zm-64.765 64.54c-1.472 1.308-3.403 3.953-5.42 2.001-.524.424.235.886-.221 1.311-.586.287-1.267.402-1.85-.224.357-.462.646-.926.327-1.409.416-.257.818-.178 1.194-.268.102-1.72 1.75-2.346 2.727-3.128.65.627.186 1.255.937 1.92.407-.056.283-1.175 1.204-1.384.435.115.859.499 1.288.748 1.126-1.115 2.152-.578 3.218-1.053.027.17.052.407.281.583-.065.775-.89.31-1.39.972.14.713.583 1.47-.492 2.147-.934-.298-2.079-1.244-1.803-2.215zm23.838-22.544c-1.049 1.831-3.19 2.843-4.548.894.47-.833.488-2.293 1.821-2.552.559.53 1.015 1.089 1.302 1.608.405.082.939-.612 1.425.05zm14.749-17.9c.08-.337-.077-.716-.133-1.057.374-.021.69-.316 1.032-.372 1.98 1.632-.729 2.386-.708 3.745-.868-.438-1.186-1.06-1.494-1.954.42-.393.856-.208 1.303-.362zm32.67-27.934c-.866.549-2.4.875-2.761-.217.94-.681 1.874-1.228 2.786-.39-.076.2-.151.4-.024.607zm-54.898 76.936c.408-.152.83-.39 1.267-.639.528.426.479.866.666 1.348.57.19 1.2-.332 1.75-.516.561.46.715.908.972 1.324.997-.339 2-1.798 2.989-1.933.956.814 1.234 1.605 1.377 2.391-.97.51-1.338 3.282-3.445 2.359-.26.636-1.58 1.473-2.185.331.459-.493 1.186-.91 1.17-1.42-.84-.266-2.162.638-2.63 1.403-1.108-.618-2.752-1.585-3.365-2.598.058.206.17.415.364.622-1.693-.76-2.56.634-2.995 2.208-.969-.265-1.614-1.872-2.213-2.092-.743-.022-1.52.833-2.166.07-.321.43.81.87.656 1.338-.702.654-1.301.434-1.941 1.226-1.172-.272-1.704-1.335-2.203-2.363.497-.593.71-1.701 1.628-1.843.427.317 1.085.742 1.393 1.494.475-.054 1.134-1.318 1.93-1.8.43.249.86.498 1.278 1.017.81.024 1.566-1.136 2.316-.472.419-.325.265-.701.211-1.04.521-.357.953.67 1.372.344-.157-1.153.58-1.84 1.728-1.807.26.278-.224.534.202.85a1.415 1.415 0 0 1-.126.198zm-.647.388c-.226.048-.457.072-.68.25-.048.243-.116.495-.146.752.32-.401 1.104-.472.826-1.002zm-.452-3.09c1.144-1.355 2.304-3.397 4.419-.164-.113 1.287-1.5 1.136-2.116 2.236-.83.136-1.945-1.696-2.343-1.966-.122.324-.201.648-.125.987-.868.547-1.293.09-1.5 1.137-1.422-.118-2.395-1.443-3.131-2.725 1.154-.944 1.383-.699 2.436-1.68.842 1.183 1.787.367 2.669 1.383-.081.27-.204.531-.309.793zm61.461-81.297l.551.59c-.07.91-1.71 1.335-1.744.523.251-.364.478-.965 1.193-1.113zm-85.883 80.946c.68.73.785 1.475.623 2.146-.864.481-1.14-.236-1.78.555-.766-.259-.145-.578-.798-1.138.934-.547 1.055-1.05 1.955-1.563zm42.99-35.52c-.386.36.279.79.232 1.163-.967 1.426-3.443 4.26-4.21.906.474-.9 1.304-.362 1.325-.973.23-.739-.933-1.493-.635-2.23 1.092-.165 2.166 1.197 3.289 1.134zm22.708-22.048c.388.557-.038 1.086-.429 1.581-.71-.058-1.38-.353-1.994-1.224.805-.685 1.621-.724 2.423-.357zm-36.454 36.923c-.663.486-1.24-.485-1.864-1.084.199-.842.688-2.217 1.811-2.28 1.046 1.191.33 2.253.053 3.364zm-8.155 4.593c.606-.828 1.28-.669 1.935-.951.007.78-.326 1.55-.997 2.308-.222-.45-.377-.896-.938-1.357zm26.22-22.785c-.013.339-.364.666-.747.958-.332-.215-.712-.058-1.036-.477.161-.742 1.27-1.382 1.782-.481zm4.576-6.09c.185-.436-.072-.852.452-1.276.23.246.454.628.697.466.182.618-.845.854-1.149.81zm-16.425 16.333c-.262.704.292 1.369-.375 1.99-.407-.014-.767-.4-1.179-.278-.189-.414-.107-.819-.228-1.23.59-.354 1.158-.096 1.782-.482zm36.723-34.45l.556.596c-.47.833-.884.038-1.294.091-.327-.35.567-.66.738-.687zm-46.3 43.165c-.15-.583 1.151-.877.922-1.123.781-.007.198 1.128-.193 1.624-.236-.043-.467-.22-.73-.501zm-16.134 17.412c-.175.163-.213.264-.119.435-.623.387-1.09-.606-.972-1.042.387-.36.735.225 1.091.607zm53.787-50.746c.908-.715 3.02.072 4.38 1.036-1.176 2.54-4.14 2.81-4.691.108.416-.257.826-1.296.311-1.144zm7.297-2.256c-1.164-.686-1.44-1.545-1.779-2.541 1.077-.676 2.169.143 3.315-.598.32.555.632.396.992.782-.183 1.352-1.42 1.784-2.528 2.357zm-13.39 9.412c.12-1.49 1.737-3.063 2.834-2.38 2.463 1.445-.576 5.788-2.834 2.38zm-28.715 31.518c-.739-1.214-1.81-1.659-1.933-2.988.67-.69 1.336-.327 2.03-.778 1.165.686.744 2.064 1.824 2.237-.073 1.119-1.247.704-1.92 1.53zm-10.11 9.946c-1.19 2.03-3.135 1.282-4.636-.468-.028-.17.321-.43.127-.709.72-.212 1.663.024 1.968-.916 1.179.279 1.637.77 2.542 2.093zm4.012-8.084c.757 1.657 2.138.04 3.289 1.134l-1.018.95c-.05.439.58.902.937 1.356-1.001.475-2.005.032-3.065 1.218-1.983-.579-3.395-3.922-.454-3.514.725-.348-.314-.758.311-1.144zm33.388-30.434c.718-.145 1.24-.5 1.334-1.244-.783-.91-1.92.544-1.334 1.244zm-15.957 14.603c.454-.358-.451-.695.206-1.046.932-.409 1.82.404 2.732.537-.561.524-.105 1.083-.227 1.657-1.297 1.143-3.3 1.107-4.014-.786.023-.678.851-.072 1.303-.362zm11.558-11.493c.833-1.499 3.409-1.341 4.201.283-1.114.776-2.16.57-3.24 1.38-.863-.573-.098-1.09-.961-1.663zm-18.378 17.074c.545.936 1.189.008 1.75-.516.225.381.466.288.732.433.042.749.454.627.667 1.348-.431.664-.857.208-1.294.09-.216.333.112.684-.478 1.037-.636-.26-1.23-.757-1.829-1.117.253-.433-.275-.859.452-1.275zm13.399-8.8c-.59-.633-1.18-1.197-1.363-1.815.964-1.358 2.3-1.685 3.61-.281-.707.79-1.554.727-2.247 2.095zm-42.259 39.17c-.486.324.886.669.365 1.025-.357.462-.764-.327-1.113-.067-.688-.527.414-1.035-.41-1.566.513-.154.988-.207 1.52-.833.821.598 1.726.794 2.565.92-.262.634-1.444.633-1.825 1.703.443-.933-.402-.924-1.102-1.182zm86.792-82.442c.027.17.086.374.28.582-.459.493-.796.483-1.147-.034.251-.364.562-.523.867-.548zm-32.311 31.787c1.439-1.342 1.89 1.323 3.312 1.44.212 1.706-2.736 1.501-2.582 2.933-.838.65-1.65.554-2.428-.492.257-.569.468-.765 1.053-.982.272-.976.983-1.902.645-2.899zm17.965-16.494c.32.554.505 1.104.657 1.619-.206.06-.412.121-.588.285a22.704 22.704 0 0 0-.656-1.62c.18-.298.376-.088.587-.284zm-12.316 12.118c.95.033 1.84.777 1.67 1.79-1.033 1.356-2.08 1.218-3.075 1.489-.664-1.416.144-2.169 1.405-3.28zm4.716-3.619c.398-.699.269-.907 1.053-.982-.054.576 1.066.58.972 1.325-.692.383-1.368.292-2.025-.343zm20.513-18.733c.381.619-.72 1.127-.07 1.754-.689.317-1.496.226-1.73-.66.774-.787.89-1.155 1.8-1.094zm-65.682 64.78c-.078 2.239-4.373 2.7-4.21-.011 1.017.036 1.326-1.04 2.202-1.791.98.136 1.03 1.598 2.008 1.802zm52.516-51.564c-.349.26-.657-.634-1.013-.17-.157.605 1.188.992 1.013.17zm-67.358 62.413c.397.214.77.191 1.137.304.03-.743.286-.397.913-.852-.197.704-.36 1.375-.657 2.041-.359-.314-.764-.326-1.112-.91-.659.419-.338.834.084 1.285-.694.453-1.202-.373-1.242-1.05.526-.491.548-.186.877-.818zm25.875-22.803c-.466.697.292 1.368-.342 2.026-.529-.426-1.078-.242-1.593-1.075-.006-.781.943-.748.66-1.403.457-.426.878.166 1.275.452zm2.442-4.813c.7-.586 1.416-1.648 2.075-1.082.256-.5-.2-1.06.768-1.57.828.607.196 1.196.788 1.76l-1.79 1.67c-.622-.667-1.61.385-1.841-.778zm-9.837 13.021c-.77.653-1.403-.66-1.452-1.205l.456-.426c.693.602 1.331.794.996 1.631zm-15.667 12.797l1.053-.982c.127.206.294.245.432.181.213.58-.113 1.145-.675 1.67-.575.016-.286-.448-.81-.87zm22.643-16.324c.73-.484 2.11-1.115 2.307.08.978-.78 1.911-1.257 2.817-.92.465 1.273.476 2.904-1.17 3.322-.656-.634-2.24-.995-1.624-2.095-.548.117-1.102.437-1.643.35.597.429.311.827.807 1.217-1.771 1.127-4.17 1.723-4.582-1.043.474.017.992-.203 1.488-.797-.384-.692-.868-.438-1.286-1.097.272-1.96 2.243-.058 2.886.983zm33.457-34.204c.42-3.28 2.831-1.327 4.527-.283-1.088 1.015-1.891 1.632-2.694 2.249-.94-.304-1.11-1.261-1.833-1.966zm20.89-16.792c1.072-.61.052-1.282-.059-1.893 1.202-.471 1.693 1.604 2.225 1.822-.905 2.338-3.961 1.875-4.026-.727.932-.48 1.266.442 1.86.798zm-51.104 45.232c1.266-2.232 3.3.794 4.02 1.566-.582.15-1.179.706-1.74.245.31 1.811-2.008 1.085-2.917-.102.381-.224.786-1.127 1.184-.841.348-.26-.421-.592-.547-.868zm27.086-20.15c-.631-.395-1.293.091-1.85-.506-.9.512-1.058 1.118-2.12 1.387-.544-1.921 1.16-3.05 2.643-4.697.536.223 1.078.242 1.59.158.447.83.25 1.605.8 2.405-.658.35-.539.83-1.063 1.253zm18.613-19.536c-.8 1.535-1.954.51-3.079.64-.748-.943.305-1.925 1.26-2.028.591.564 1.195.79 1.819 1.388zm-40.204 34.75c1.207-.534 4.225-.395 3.267 1.745-1.076.676-3.633-.025-3.267-1.744zm8.794-6.651c.519.697 1.078.241 1.592 1.075-1.268.329-2.054 1.456-3.011 1.626-.56-.529.038-1.085-.657-1.619.707-.79 1.373-.427 2.076-1.082zm6.034-6.158c.554-.32 1.088-.03 1.614.464-.756 1.23-1.783 1.466-2.065 2.713-.692-.602-.502-1.173-.752-1.793.484-.255.975.272 1.434-.221.115-.37-.55-.8-.231-1.163zm24.497-18.168c-.587-.7-1.34-.522-1.548-1.378 1.409-.46 1.787 1.353 2.858 1.798-1.341 1.447-2.879 2.684-4.104.807.887-1.09 1.645-.418 2.46-.39.519-.287.053-.575.334-.837zm11.523-10.022c-.219-.445 1.048-.847.492-1.302.388-.428.812-.044 1.136.304-.267.769-.999 1.321-1.628.998zm-29.619 33.88c.091-.323.418-.565.84-.704.527.493.475 1.001-.049 1.424-.236.025-.46-.28-.7-.132-.01.418-.18.84-.526 1.207-.459.494-1.355-.115-1.49.865-.354-.59-.726-.636-1.123-.922-.257-1.401.98-1.834 1.536-3.139.787.282 1.311.809 1.512 1.4zm24.821-28.375c-.767.585-.68 1.03-1.345 1.584-.386-.625-.803-.368-1.123-.923.662-.486.445-1.07 1.04-1.56.51-.016.975.272 1.428.9zm-26.518 25.244c-.23-.246-.051-.477-.38-.76.888-.173.64-.861.8-1.535 1.041-.643 2.662.603 2.081 1.67-.826.31-1.621.724-2.5.625zm8.322-5.756c-.426.528-.789.21-1.149.809-1.155-.958-2.797-1.592-1.087-2.925.47.152.973.34 1.416.321.42.592.163 1.16.82 1.795zm-38.649 35.218c-.601-.292-1.572-.7-1.375-1.474.891-.24 1.78-.413 2.646.092-1.16.164-.211 1.182-1.271 1.382zm10.465-12.858c.542.019.182-.368.737-.688.67 1.212 1.534.8 1.728 2.064-1.212.671-2.51-.087-2.465-1.376zm-5.766 6.302c.248.688-.08 1.322.102 1.94-.592.42-1.195.195-1.787-.369.328-.634 1.03-1.288 1.685-1.571zm40.26-32.11c-.95 1.936-2.88 2.752-4.501 2.491-.713-1.96.41-3.008 2.493-4.294.43 1.306.685 1.79 2.009 1.803zm2.544-3.188c-1.4-2.698.788-4.082 1.812-2.28.194.278.36.386.72.772l-1.79 1.67c-.262-.281-.534-.29-.742-.162zm-9.745 10.056c.424-.46.136-.98.932-1.394 1.16.822-.668 1.607-.221 2.437-1.947 1.29-3.329.02-4.743 1.6-.144-1.702 1.27-3.283 2.896-4.143.449.763.825.674 1.136 1.5zm-34.961 34.417c-.623 1.303-.308 2.978-2.037 3.868-2.038-.003-2.991-1.87-2.761-3.594.596-.557 1.16-.163 1.771-1.127 1.008.307 1.981.647 3.027.853zm10.284-9.518c-1.238 1.417-2.73.38-3.439-.731.116-3.325 4.144-1.961 3.439.73zm46.728-47.445c.475-.053 1.777-.487 1.37-1.276.618-.252 1.171.27 1.719.929-.26.566-.316 1.139-.103 1.72a2.4 2.4 0 0 0-1.193 1.112c-.573-.895-1.915-1.137-1.793-2.485zm-53.292 54.425c-1.314-.284-1.992-1.292-1.779-2.541.241-.094.48-.12.742.161.047-.372-.55-.8-.3-1.165 1.512-.49 2.91.306 4.41.154-1.565 1.066-.964 1.359-1.138 2.44-.664.554-1.291.022-1.935.951zm47.42-47.995c1.634.838 3.233-.193 2.943-1.63-.945-.168-3.75-.572-2.944 1.63zm-35.062 34.944c-.84-.267-1.6-1.855-2.407-1.102.298-1.722 4.337-.698 2.407 1.102zm-44.705 40.454c.243-.162.462.284.691.46-.25.363-.518.288-.726.417-.291-.313.394-.563.035-.877zm8.957-6.956c1.452 1.698-1.666 2.788-2.657 1.373.87.229 1.753-1.569 2.657-1.373zm-7.197 6.71c-.043.236.519 1.4.95.738.247-.229-.685-1.439-.95-.737zm59.862-56.775c.727.568 3.195 1.877 2.761 3.594l-.561.524c-1.223-.96-2.559-1.618-2.7-3.389.245-.229.661-.486.5-.73zm31.084-24.168c-.589.354-1.161.303-1.687-.05.766-.585.866-1.393 1.544-2.285.284.515.745.8.764 1.171-.65.217-.53.559-.621 1.164zm-.047-2.457l-.105.098c-.224-.31-.264-.987-.575-.828l.68.73zm-59.568 76.957c.647-1.325 1.905-1.485 2.09-2.996.64 1.11 1.145 2.214 1.381 3.24-1.135 1.388-2.15.3-3.242.465a.936.936 0 0 0-.176-.456c.008.05.015.099.02.148-.636.725-1.252.84-1.871.105-.417.257-.054.575-.606.828-.969-.476-2.596-1.517-2.662-2.572 1.573-2.89 4.515-.937 5.066 1.238zm22.092-43.48c-.8.549.521 1.614 1.027.748-.26-.348-.505-.12-.742-.161.108-.166.316-.295.153-.47-.14.13-.274.058-.438-.118zm19.366-13.722c-.477.052-.964-.61-1.474-.595-.537-1.14 1.908-2.106 1.029-3.19.891-.24.907 1.254 1.85.506.067.987-1.257 1.96-1.405 3.28zm-7.866 6.71c-.74-.23-1.12-.99-1.539-1.65.614-1.032 1.723-1.672 2.954-1.901.551.732.596 1.413.399 2.187-.798.482-1.339.395-1.814 1.364zm-54.78 51.596c-.138-.781.702-1.5.43-2.284 1.657-.897 2.089.13 2.974 1.642-.659.42-1.33.332-1.944 1.293-.502-.116-.97-.265-1.46-.651zm18.405-19.96c.842-.785 2.587.804 2.551 1.821-.262.704-1.008.678-1.64 1.268l-1.277-1.37c.426-.528.244-1.146.366-1.719zm7.178-2.556c-.77-.333-2.159-.415-2.42-1.681a8.757 8.757 0 0 1 2.532-1.508c.951.95 1.337.59 1.398 1.781-.857.208-.742.823-1.51 1.408zm24.366-25.241c.388.557-.478 1.036.385 1.61-.784 1.059-1.549.59-2.306-.08.042-1.222.896-1.362 1.921-1.53zm17.313-16.002c.063-.847-.819.107-1.265-.723.667-.622 1.268-.33 1.897.134l-.632.59zm6.705-6.515c-.42.392-.816.039-1.143-.312l.596-.557c.433.253.702.33.547.869zm-52.497 51.01c.81-.82-1.131-1.635-1.69-1.18.51.97 1.143.312 1.69 1.18zm49.608-48.37c-.147-.65.863-.412 1.194-1.113-.93-1.561-2.28 1.075-1.194 1.113zm-27.81 25.845c.34.012.667.363.96.746-.63.522-1.203.4-1.416-.32l.456-.426zm-22.036 20.549c.684-.112 1.381-1.616 2.022-.507-.218.4-.805.685-1.203 1.384-.51.016-.187-.482-.819-.877zm-25.198 26.334c-.624.387-.413 1.035-1.018.95-.316-.55-.06-1.05.467-1.54l.551.59zm85.178-76.065c-1.337.467-.954 1.019-1.675 2.146-2.262-.034-2.672-2.444-.585-3.936 1.04.2 1.52.856 2.26 1.79zm-14.472 15.012c-1.66-1.077-.756-2.641-1.729-3.966 1.025-1.153 2.007-.1 3.034-.335.218.585.274.926.842 1.184-.351.327-.227.671-.747.959.012-.34-.194-.279-.393-.422-1.116.844-.74 1.74-1.007 2.58zm-9.74 8.285c-.385 2.262-4.123 1.35-3.911-.815.802-.618 1.576-.42 2.381-1.106.47.152.533 1.275 1.53 1.921zm6.163-4.754c-1.074.608-1.872 1.09-2.387 2.226.486.662.933.508 1.417 1.238-1.408.46-.252 3.32-2.616 2.965-.461-.423-.21-.788-.842-1.184.395-.631.962-1.29 1.423-1.852.283-.33-.044-.68-.44-1.034 1.543-1.373-1.088-2.857.622-4.19.725.637 1.56.055 2.342.048-.021.61.264 1.198.481 1.783zm9.774-10.889c-.622-.667-1.611-.531-1.407-1.51.559-.455.966-.44 1.193-1.112.849.98 1.755-.652 2.557.7-.611.964-1.535 1.17-2.343 1.922zm-46.926 43.697c.833.47.76-.38 1.629-.928.477.934-.504 1.783-.537 2.732-.758.313-1.535.184-2.36.495-2.964-.715-.523-4.5 1.463-3.005-.043.236-.356.463-.195.706zm4.687-2.623c-.617-.803-1.165-.686-1.408-1.51.567-.659.658-1.335 1.26-2.027 1.076.31 1.887 1.39 1.92 2.41-.576.931-1.166.3-1.772 1.127zm20.243-18.18c-1.527-.02-3.004 1.423-4.051-.685 1.313-.634 1.324-.973 2.282-2.128.96.679 1.772 1.76 1.77 2.813zm1.592-4.504l-.426-.457c-.018-.442.607-.828 1.063-1.253.557.597-.312 1.144-.637 1.71zm-50.6 48.17c3.313 2.496-2.254 4.83-2.516 1.242.832-.516 1.65-.694 2.517-1.243zm-6.946 7.049c.349-.26.46-.493.165-.739.548-.186 1.69.828.691 1.305-.283-.516-.602-.153-.856-.566zm60.32-52.841c.443.966-1.024 1.152-1.834 1.973-1.408-.524-.156-2.349.843-2.755.022-.61-.261-1.266-.95-1.935 1.567-.15 2.57 1.278 3.954 2.481l-.456.426c-.53.559-1.013-.171-1.556-.19zm16.293-15.799c-.528-.426-.514-.833-.806-1.217.383-.292.76-.38 1.172-.502-.232.807.17-.028.687.737-.014.407-.646.996-1.053.982zm-35.152 35.148c-.81-.164-2.25-.724-2.57-1.278.795-.414 1.644-.418 2.496-1.475.442.966.647 1.89.074 2.753zm43.37-42.96c-.53-.357-.367-.182-.687-.736l.632-.59c.493.459.512.901.055 1.327zM1658.5 127.22c-.349.26-.676-.092-1.003-.443l.491-.458c.362.318-.019.543.512.9zm-36.24 35.468l-.983-1.053c.426-.529.793-.346 1.172-.502.323.486.372 1.031-.19 1.555zm-21.81 22.952c-.61.894-1.193-.576-1.382-.92.453-.357.858-.345 1.277.174-.645.082-.46.493.105.746zm64.394-57.776c-.791.278-1.488-.188-2.17-1.061.648-1.064 1.392-1.955 2.15-2.268.931.575.243 1.808 1.258 1.911-.115.37-1.34.463-1.238 1.418zm-16.9 15.949c-.21.196-.248.297-.185.435-.735.62-1.453.764-2.242.974-1.445-1.409.299-2.706.788-4.081.512.9 1.024 1.801 1.639 2.672zm21.322-22.88c.655.702 1.36-.021 2.057-.54.549.8 1.12.99 1.742.672.224.381-.976.713-.04 1.153-.485.255-.896.377-1.357.938-.969-.475-1.96-.272-2.854-.949-.154-.447-.004-.849.452-1.275zm6.948-4.548c-.192-.275-.354-.45-.562-.32-.073-.712.994-2.031 1.847-2.242l.81.868c-.472.83-1.234 1.28-2.095 1.694zm-25.688 22.168c.74-.755 1.515-1.543 2.26-1.517.721.772 1.423 1.103 2.14 1.943-1.022 1.085-1.918.476-2.816.92-.522-.63-1.048-1.123-1.584-1.346zm-45.488 48.361c-1.136-1.148-.904-1.04-2.213-2.092.316-1.139.653-1.973 1.976-2.103.19 1.188 1.428 1.461 1.887 2.657-.672.757-1.345.67-1.65 1.538zm68.797-69.656l1.193-1.113c-.011.34.155.447.403.15.018.442-1.218 1.791-1.596.963zm-51.404 51.713c-.793-.639-2.042-.852-2.376-1.984l1.474-1.375c.777.129 2.36 1.475 2.226 2.387-.657.35-.842.786-1.324.972zm-24.672 22.51c-.073-.711 1.442-1.41.56-2.145.326-.564.636.12 1.03-.442.306.82.365 1.024 1.218 1.657-.748.958-.659 1.264-1.836 1.972l-.972-1.042zm10.153-11.924c.552-.252.215.653.818.878-.21.196-.42.393-.292.6-.377.09-.641-.124-1.001-.51-.16-.31.734-.62.475-.968zm-14.599 18.291c-1.153-.743-.213-1.425-.926-2.189 1.05-.07.573.895 1.523 1.633l-.597.556zm-1.741.54c-.422-.452-.235-.886-.386-1.33.24-.093.443-.087.702.19-.656.353.645.763-.316 1.14zm79.348-71.383c-.991-.781-1.631 1.981-2.763.345.415-1.174 2.726-1.229 3.957-1.458-.167.877-1.116-.14-1.194 1.113zm-61.218 55.561c.79-.278-.345-1.778-.842-1.184.084.512.662.499.842 1.184zm40.285-37.57c.23-.738.153-1.454 1.128-2.167.407.014.828.606 1.254 1.062-.094.744-1.072.54-.487 1.308-.625.386-1.264.193-1.895-.202zm6.432-6.735c1.03-.303.672-.757 1.379-1.548.353.59.76.604 1.09.887-.356.463-.312 1.144-1.052 1.9-.744-.095-1.448-.357-1.417-1.239zm25.743-22.162c-.213-.58 1.531-1.103.913-1.695-1.085-.742-1.685 1.571-.913 1.695zm-62.612 57.675c.021-.61.786-1.127.365-1.72.249-.296.447-.154.763-.448.276.858.145.718.982 1.053-.06.779-1.336 2.297-2.11 1.115zm42.568-37.3c1.244.348.877-.82 1.465-1.104 2.303 1.133.791 3.593-1.115 2.746-.388-.557-.166-1.093-.35-1.643zm6.898-5.96c.246-.229.288-.465.162-.741.856-.208 1.166 1.603 2.008 1.802-.248.297-.514.152-.763.449-.165-1.093-.62-.735-1.407-1.51zm-1.243 1.404l.631-.59c.15.583 1.146 1.23.21 1.774-.36-.386-.888-.812-.841-1.184zm8.994-7.13c.612.94 1.56 1.04 1.363 1.814-1.182.774-2.288.362-3.474-.698.695-.451 1.392.014 2.11-1.115zm-20.93 18.697c.326-.566 1.355-.87 1.194-1.113.978.203 1.033 1.53 1.986 1.495-.15.403-.3.805-.583 1.135-.419-.66-.76-.604-1.222-.043-.704-.262-.954-.882-1.375-1.474zm-47.737 46.439c.689.527 1.485.044 1.183-.843 1.088-.17 2.068.669 1.99 1.781-.554.322-1.075-.167-1.65.694-.418-.519-1.253-.78-1.523-1.632zm9.832-8.54l-.687-.737c.454-.358.973-.645 1.424.05-.323.498-.147.334-.737.687zm3.564-2.212c-.35.259-.288.465-.466.696.432.253.908-.715 1.392-.97-.347 2.162-1.947 1.29-3.418.628.452-.29.899-.444 1.357-.937.356.521.786-.143 1.135.583zm-18.875 17.797c.04-1.012 2.127-.815 1.65-1.538.85-.144 1.662 1.501.925 2.189-.623-.458-.434-.959-1.09-1.451-.689.317-.133.773-.619 1.096-.278-.65-.624.387-.866-.296zm71.993-65.71c-.992.204-1.07 1.458-1.128 2.169.877.166 2.459-1.375 1.128-2.168zm-17.974 16.532c.487-.323 1.385.218 1.438.627l-.456.426c-.554-.665-.767-.4-.982-1.053zm-41.787 43.603c-1.055-.64.22-1.243-.094-1.86.767-.586 1.28.105 1.288.747-.95.107-.616 1.029-1.194 1.113zm43.261-36.129c-1.804 1.092-3.037.404-3.443-1.58.906-.648 1.746-.38 2.623-.214.624.599-.008 1.188.82 1.794zm5.452-5.825c-2.243-4.799-3.648 2.352 0 0zm4.143-4.202c.782-.991 2.02-1.424 1.552-2.629-1.496-.901-3.198 1.145-1.552 2.63zm13.309-12.356c-.726.348-1.973.067-2.145-.822.533-.694 1.822.335 1.596-.963.695-.451 1.464-.119 1.742.672-.3.805-1.776.278-1.193 1.113zm5.037-7.209c.676.092.45.695 1.157.89-.044.304-.225.603-.641.86-.529-.426-.716-.908-.973-1.324l.457-.426zm-11.47 10.557c.527.494.882 1.016 1.102 1.533-.417.257-.76.38-1.172.502-.12-.48.304-.94-.561-1.446l.632-.59zm10.87-4.06c-.372-.047-.796.413-1.189-.008.281-.262.188-.503.501-.73l.688.738zm-29.011 28.797c-.576-.054-1.071-.445-1.289-1.03.515-.152 1.035-.44 1.48-.526.563.393-.125.641.406 1-.155.537-.89.172-.597.556zm17.814-16.83c-.419.326-.772-.264-1.132-.65l.456-.426c.328.351.145.719.676 1.077zm-13.894 10.955c.281-.262.515-.152.763-.449.332.216.64 1.11 1.001.51.26.35-.056.644-.442 1.004-.466-.288-1.34-.522-1.322-1.065zm3.98-.225c-.536-.223.175-1.149-.548-.868-.09-.31.09-.609.303-.873.184.55 1.113 1.194.244 1.74zm1.314-.654c.708-.79 1.412 1.022 2.166-.07.348.584.899.33.842.903-1.04.644-2.125 1.592-3.043.044.383-.292.362-.597.035-.877zm19.823-17.375c.243-.161.58-.151.856-.278.527.353.378.687.702 1.034-.354.395-.705.722-1.042.712-.516-.623.386-1.204-.516-1.468zm-12.132 13.25c-.367-.113-.778.01-1.158-.61.583-.218 1.201-.47 1.739-.387-.149.334.008.642-.581.996zm.795-1.28c.132.07.259.277.4.146-.192-.276-.379.158-.614.117.07-.065.04-.168.214-.264zm-15.483 17.763c.224-.534 1.158-.236.877-.819.376-.09.759.462 1.126.574-.505-.048-1.029.375-1.628 1 .01-.27-.149-.512-.375-.755zm7.268-5.128l-.583-.625c.45-.291.866-.549 1.215.036l-.632.589zm25.968-18.344c-.77.652-1.987-1.005-1.86-1.643.213-.264.442-.088.618-.252.618.593 1.099 1.249 1.242 1.895zm-6.463 5.168c-.291.532-.58.152-.866.549-.162-.174.113-1.145.607-.826l.26.277zm-15.248 18.91c.578-.085 1.045.909 1.58.215-.4-.147-1.583-.993-1.58-.216zm.076 2.214l.551.59c-.456.426-.875.752-1.288.098l.737-.688zm-4.47 6.105c-.581.152-.676-.864-.225-1.155.394.282.519.556.54.86-.205.062-.443.089-.316.295zm30.996-25.294c1.131.44 2.894 1.133 3.618-.061-1.15-.811-3.278-1.685-3.618.061zm16.379-11.37c-1.07.543-1.407-.312-2.26-.945.491-.458.14-.975.902-1.426.745.8 1.795 1.574 1.358 2.371zm-26.83 23.051c-.245-.615-.05-1.251.513-1.842 1.078.944 2.285.338 2.962 1.979-1.196.336-2.29-1.047-3.475-.137zm-11.087 13.132c-.756-.53-1.082-.81-1.684-1.807.702-.655 1.36-.23 2.046-.48.31.685.972 1.043 1.253 1.625-.483.256-1.65-.15-1.615.662zm-4.572 4.835l-.55-.59c.116-.369 1.085-.948 1.592-.122-.35.327-.648.15-1.042.712zm-99.544-96.233c.624.458.2.918.656 1.337-.319.362-.564-.253-.842-.059-.162-.174.254-.432.467-.695-.235-.041-.905-.196-.28-.583zm8.529 11.617c.64.124 1.26-.126 1.935-.952.224.382-.466.697-.206 1.046.68-.044.372.047 1.003.443.852-1.057 1.835-1.974 3.002-1.356.285.587-.04 1.153-.4 1.752-.44-.05-.948-.1-1.425-.05-.197.775-.495 1.511-1.54 2.29-.92-.915.875-1.735.092-2.646-.712-.059-.69.316-1.184.842-.728-.569-1.184-.143-1.566.081-.73-.5-.678-1.009-1.136-1.5.382-.224.836-.582 1.315-.701.23.245.22.517.11.75zm-8.824 22.787c.227.314.435.185.307-.023-.218-.585.404.082.294.316 1.088-.03 1.089-2 1.672-2.15.657.635.738 1.215.787 1.76-1.067.405-1.233 1.282-2.197.67-.25.366.077.717-.206 1.046-.457.426-.927.274-1.415-.32.185-.436.302-.873.758-1.299zm33.916-13.422c1.04.342-.32 1.347.502 1.172-.447.154-.772.72-1.346 1.583-.7-.398.232-.807.076-1.186-.531-.358-.22.468-.632.59.1-.948.564-1.577 1.4-2.16zm19.908-4.76c-.657.35-.4.766-.922 1.122-.372-.047-.732-.433-1.144-.312.014-.407 1.708-.28 1.063-1.253.35-.328.678.023 1.003.442zm-33.786 64.95c-1.44 1.342-1.866-.664-3.183-.67-1.324.975-2.304 1.824-3.783 1.645-1.925-1.712-.289-2.914.573-4.171.391.349.48.656.4.99 1.165.407 1.633-.288 2.632.08-.011.269-.29.463-.784.99.462.283.948-.04 1.453.008.014-.337.535-.693.011-1.114 1.355-.095 2.687-1.271 3.956-.051-.473.83-1.083 1.724-1.848 1.397-.329.632.222.378.573.895zm11.547-12.871c-.824 1.227-1.298-.759-1.778-.64-.287-.52.342-1.04.225-1.588.2.143.456 1.544 1.553 2.228zm45.415-42.454c.384-.292 1.498-.083 1.489-.797.779.062 1.883.542 2.071 1.94-.662.487-.852 1.058-1.345 1.584-1.495.016-2.777-1.218-2.215-2.727zm-44.452 46.945c.816.946-.893 4.18-2.938 4.38-.594-.496-1.207-1.434-1.831-1.048-.152-.515.035-1.018-.255-1.47.983-.916 2.05-1.32 2.432-2.53.742.162 2.243 1.912 2.592.668zm-19.955 17.576c-1.159 1.08.788 1.408.645 2.45.402-.764.267-1.612-.645-2.45zm68.4-31.456a1.13 1.13 0 0 1-.297-.687c.35-.135.396.22.562.495.118-.068.234-.094.346-.007-.016.474.068.987.526 1.478.368-.802-.65-.837-1.249-1.198.038-.025.075-.052.112-.081zm-4.587-24.249c.02-.543-.03-1.088-.08-1.565 1.212-1.656 2.315-.19 3.49-.761-.614 1.031-2.714.89-3.41 2.326zm-50.371 52.376c-.054-.41-.24-.891.18-1.284.232.178.09.377.286.587.2.075.37.115.542.02.19.414-.723.28-1.008.677zm18.436 1.674c.81-.82 1.617-1.573 2.382-1.105-.146 1.251 1.426.967 1.657 2.13-.741-.162-.968.509-.618 1.167-.966.441-1.963.78-2.967 1.322-.841-1.184-1.843-.71-2.245-1.844-.344.124-1.34.463-1.816 1.43-.608-.088-1.209-.381-1.883-.54-.428.596-.349 1.244-1.17 1.42-.814-.03.026-.747-.535-1.208-1.162-.754-1.512.49-2.667.518-.672.758.692 1.586-.352 2.297.453.627.268 1.062 1.005 1.36-.828.378-.506.865-.555 1.305-.835.582-2.353-.694-2.079-1.737-.963-.611-1.182 1.759-2.11 1.115-.258.568.638.192.448.763-1.027.236-2.06.675-3.088.91-1.13-.718-.528-1.41-1.421-2.087.975-.713 2.052-2.373 2.997-2.204.788.774-.498.662-.452 1.275l.688.737c.845-.854.735-1.605 1.93-1.8.955.882 1.277 1.368 2.475 1.105.393-.564-.15-.583-.58-.904a.696.696 0 0 0 .738-.687c-.536-1.208-.158-3.266-1.99-4.315 1.98-1.255 4.15-2.096 5.65.639.536-.762.766-1.502 1.81-2.212-1.71-1.622-2.123-4.388.76-5.238.86.642 2.12 1.5 2.6.397-.339.973.507 2.021.03 3.057-.384.292-.768.585-1.172.503-.253.432.376.896-.453 1.274.63.464.309.894.97 1.393.653-.215 1.4-1.174 2.013-.236zm1.295-6.224c.063.138-.045.304.086.445.27.077.515-.152.742.162-.031.881-.903.58-1.315.7-.564.592.666.364-.031.883-.292-.384-.271-.995-.86-.642.184-.435.774-.788 1.378-1.548zm40.858-34.036c.941-.68 1.786-.55 2.111-1.115.762.536.512 1.886 1.833 1.966-.482.187-.91-.202-1.352-.183.285.587-.358.53-.267.84-.585.217-1.076-.31-1.623-.193.185-.435-.173-.89-.702-1.315zm5.754 1.424c-.56-.529-.203-.992.05-1.424-.188.503.753-.178 1.003.442-.075.201-.15.403-.054.576-.318.362-.618.182-1 .406zm-.378-1.307c.105-.098-.06-.206.045-.304.13.14.06.206-.045.304zm-10.948 16.038c1.24 1.47.254 1.47 1.201 2.555-.564.592-1.196 1.181-1.804 1.092-.353.395-.335.837.159 1.296-1.846-.642-1.016-3.975.444-4.943zm38.453-17.032c.653-.284-.38-.619.305-.869.127.207.294.245.432.182-.165.738.524 1.265.235 1.73-.248-.548-.443-.757-.972-1.043zm-28.126 29.846c.91.06-.527.49.421.452.038.744-1.083.035-1.485.8-.516-.623-1.507-.349-1.569-1.33l.632-.59c.224.311.432.182.689.528.35-.328-.448-.622-.537-.928.623-.387 1.31-.637 1.884-.654.348.585.664 1.135-.035 1.722zm-76.126-78.27c1.877 1.237.556 3.833-1.11 3.243-.667-1.067-.432-2.715 1.11-3.244zm7.342 1.207c-.997.41-1.278 1.516-2.387 1.382-.43-.25-.83-1.241-1.242-1.05-.516-.624 1.002-.545.221-1.311.573.05 1.202.373 1.885-.654.729.36 1.555.823 1.523 1.633zm-31.44 40.738c-1.548.59-2.636 1.606-4.341-.152.162-1.726 1.36-1.99 2.834-2.38 1.012 1.156 1.033 1.53 1.508 2.532zm77-53.048c-.553.321-.194.636-.747.957-.713-.764-1.399-.514-1.464.26-2.084-1.953 1.003-3.077 2.212-1.217zm-65.8 58.15c.458-1.411 1.463-1.037 1.986-2.377.842.2 1.698.976 2.572 1.21.01.714.089 1.362.269 2.048-1.678.383-3.224-.079-4.826-.882zm10.743-5.729c-.756.245-1.048-.138-1.456.832a6.85 6.85 0 0 1-1.723-1.215c.964-2.343 3.45-1.577 3.179.383zm8.296 21.361c.772.265 1.596-.963 2.33.387-1.491 1.85-1.461 2.938-3.757 3.503-.717-.84-2.256-1.505-2.083-2.586 1.708-1.265 1.234-3.251 3.51-1.304zm58.538-47.303c.248-.297-.385-.625-.24-.891.494-.527 1.01.239 1.619-.657.739.23 1.16 1.806 1.854 1.355-.407.97-1.322 1.89-1.865 2.856-1.067-.58-1.909-1.765-2.39-2.563.36-.599.669.295 1.022-.1zm7.63-4.775c-.027.675-.365.665-.889 1.088-.726-.427-.748.113-1.604-.453.64-.791 1.704-.354 1.51-1.407.902-.582.13.983.983.772zm-57.688 82.86c-1.412-.177-4.012-2.753-4.247-.26.783-.146 1.544-.597 2.211.47-.642.86-1.212.741-1.79.825-1.131-2.127-3.364-.37-4.94-3.186l.596-.557c.365.18.764.327 1.158.609.052-.438-.234-.885-.118-1.253.861.43 1.342-.602 1.944-1.294.958 1.38 2.163-.003 3.137 1.816.486-.323.4-.698.281-1.106 1.237.34 1.985-.617 2.646-1.104.419.519.332.99.516 1.468-1.05.07-.284 1.173-.036 1.721-1.125.27-.823 1.158-1.358 1.851zm12.833 5.545c.374-.021.758-.314.468-.765.786.842 3.337 1.679 3.51 3.553-1.226.093-1.238.432-1.615 1.505-1.095-.751-1.361-.896-2.303-2.118.393-.563.79-.278 1.216-.806.162-.742-.954-.883-1.276-1.37zm66.827-60.929c.543-.051.211-.196.632-.59.675.02 1.39.718 2.176-.34.117.476.435.959.516 1.468-.664.554-1.261.266-1.942 1.226-.853-.634-1.08-.877-1.382-1.764zm-60.233 63.621c.358-.53.014-.407-.414-.795.592-.421 1.083.105 1.598-.046-.059.71-1.374 1.412-1.907 2.107-.6-.361-.213-.721-.44-1.035.391-.495.78.061 1.163-.23z" fill-opacity=".32" fill="#19212E"/><path d="M1428.59-91.213a1.5 1.5 0 1 1-1.889 2.332 1.5 1.5 0 0 1 1.89-2.332zm12.435 10.07a1.5 1.5 0 1 1-1.89 2.331 1.5 1.5 0 0 1 1.89-2.332zm-6.217-5.035a1.5 1.5 0 1 1-1.89 2.331 1.5 1.5 0 0 1 1.89-2.331zm12.434 10.069a1.5 1.5 0 1 1-1.89 2.332 1.5 1.5 0 0 1 1.89-2.332zm12.435 10.07a1.5 1.5 0 1 1-1.89 2.33 1.5 1.5 0 0 1 1.89-2.33zm-6.218-5.035a1.5 1.5 0 1 1-1.89 2.331 1.5 1.5 0 0 1 1.89-2.331zm12.435 10.069a1.5 1.5 0 1 1-1.89 2.331 1.5 1.5 0 0 1 1.89-2.331zm12.434 10.069a1.5 1.5 0 1 1-1.89 2.331 1.5 1.5 0 0 1 1.89-2.331zm-6.217-5.035a1.5 1.5 0 1 1-1.89 2.332 1.5 1.5 0 0 1 1.89-2.332zm12.434 10.07a1.5 1.5 0 1 1-1.89 2.331 1.5 1.5 0 0 1 1.89-2.332zm12.435 10.069a1.5 1.5 0 1 1-1.89 2.331 1.5 1.5 0 0 1 1.89-2.331zm-6.218-5.035a1.5 1.5 0 1 1-1.89 2.332 1.5 1.5 0 0 1 1.89-2.332zm12.435 10.07a1.5 1.5 0 1 1-1.89 2.33 1.5 1.5 0 0 1 1.89-2.33zm12.434 10.068a1.5 1.5 0 1 1-1.89 2.332 1.5 1.5 0 0 1 1.89-2.332zm-6.217-5.034a1.5 1.5 0 1 1-1.89 2.331 1.5 1.5 0 0 1 1.89-2.331zm12.434 10.069a1.5 1.5 0 1 1-1.89 2.331 1.5 1.5 0 0 1 1.89-2.331zm12.435 10.069a1.5 1.5 0 1 1-1.89 2.331 1.5 1.5 0 0 1 1.89-2.331zm-6.218-5.035a1.5 1.5 0 1 1-1.89 2.332 1.5 1.5 0 0 1 1.89-2.332zM1540.5-.59a1.5 1.5 0 1 1-1.89 2.331 1.5 1.5 0 0 1 1.89-2.332zm-134.565-62.645a1.5 1.5 0 1 1-1.89 2.331 1.5 1.5 0 0 1 1.89-2.331zm12.435 10.069a1.5 1.5 0 1 1-1.89 2.331 1.5 1.5 0 0 1 1.89-2.331zm-6.218-5.035a1.5 1.5 0 1 1-1.89 2.332 1.5 1.5 0 0 1 1.89-2.332zm12.435 10.07a1.5 1.5 0 1 1-1.89 2.33 1.5 1.5 0 0 1 1.89-2.33zm12.434 10.068a1.5 1.5 0 1 1-1.89 2.332 1.5 1.5 0 0 1 1.89-2.332zm-6.217-5.034a1.5 1.5 0 1 1-1.89 2.331 1.5 1.5 0 0 1 1.89-2.331zm12.434 10.069a1.5 1.5 0 1 1-1.89 2.332 1.5 1.5 0 0 1 1.89-2.332zm12.435 10.07a1.5 1.5 0 1 1-1.89 2.33 1.5 1.5 0 0 1 1.89-2.33zm-6.218-5.035a1.5 1.5 0 1 1-1.89 2.331 1.5 1.5 0 0 1 1.89-2.331zm12.435 10.069a1.5 1.5 0 1 1-1.89 2.331 1.5 1.5 0 0 1 1.89-2.331zm12.434 10.069a1.5 1.5 0 1 1-1.89 2.331 1.5 1.5 0 0 1 1.89-2.331zm-6.217-5.035a1.5 1.5 0 1 1-1.89 2.332 1.5 1.5 0 0 1 1.89-2.332zm12.434 10.07a1.5 1.5 0 1 1-1.89 2.33 1.5 1.5 0 0 1 1.89-2.33zm12.435 10.068a1.5 1.5 0 1 1-1.89 2.332 1.5 1.5 0 0 1 1.89-2.332zm-6.218-5.034a1.5 1.5 0 1 1-1.89 2.331 1.5 1.5 0 0 1 1.89-2.331zm12.435 10.069a1.5 1.5 0 1 1-1.89 2.332 1.5 1.5 0 0 1 1.89-2.332zm12.434 10.07a1.5 1.5 0 1 1-1.89 2.33 1.5 1.5 0 0 1 1.89-2.33zm-6.217-5.035a1.5 1.5 0 1 1-1.89 2.331 1.5 1.5 0 0 1 1.89-2.331zm12.434 10.069a1.5 1.5 0 1 1-1.89 2.331 1.5 1.5 0 0 1 1.89-2.331zm-103.136-95.1a1.5 1.5 0 1 1-1.89 2.332 1.5 1.5 0 0 1 1.89-2.331zm12.434 10.07a1.5 1.5 0 1 1-1.89 2.331 1.5 1.5 0 0 1 1.89-2.331zm-6.217-5.035a1.5 1.5 0 1 1-1.89 2.332 1.5 1.5 0 0 1 1.89-2.332zm12.434 10.07a1.5 1.5 0 1 1-1.89 2.33 1.5 1.5 0 0 1 1.89-2.33zm12.434 10.068a1.5 1.5 0 1 1-1.889 2.332 1.5 1.5 0 0 1 1.89-2.332zm-6.217-5.034a1.5 1.5 0 1 1-1.89 2.331 1.5 1.5 0 0 1 1.89-2.331zm12.435 10.069a1.5 1.5 0 1 1-1.89 2.332 1.5 1.5 0 0 1 1.89-2.332zm12.434 10.069a1.5 1.5 0 1 1-1.89 2.332 1.5 1.5 0 0 1 1.89-2.332zm-6.217-5.035a1.5 1.5 0 1 1-1.89 2.332 1.5 1.5 0 0 1 1.89-2.332zm12.434 10.07a1.5 1.5 0 1 1-1.89 2.331 1.5 1.5 0 0 1 1.89-2.331zm12.434 10.069a1.5 1.5 0 1 1-1.889 2.331 1.5 1.5 0 0 1 1.89-2.331zm-6.217-5.035a1.5 1.5 0 1 1-1.89 2.332 1.5 1.5 0 0 1 1.89-2.332zm12.435 10.07a1.5 1.5 0 1 1-1.89 2.33 1.5 1.5 0 0 1 1.89-2.33zm12.434 10.068a1.5 1.5 0 1 1-1.89 2.332 1.5 1.5 0 0 1 1.89-2.332zm-6.217-5.034a1.5 1.5 0 1 1-1.89 2.331 1.5 1.5 0 0 1 1.89-2.331zm12.434 10.069a1.5 1.5 0 1 1-1.89 2.332 1.5 1.5 0 0 1 1.89-2.332zm12.434 10.07a1.5 1.5 0 1 1-1.889 2.33 1.5 1.5 0 0 1 1.89-2.33zm-6.217-5.035a1.5 1.5 0 1 1-1.89 2.331 1.5 1.5 0 0 1 1.89-2.331zm12.435 10.069a1.5 1.5 0 1 1-1.89 2.331 1.5 1.5 0 0 1 1.89-2.331zM1417.263-77.224a1.5 1.5 0 1 1-1.89 2.332 1.5 1.5 0 0 1 1.89-2.332zm12.434 10.07a1.5 1.5 0 1 1-1.89 2.33 1.5 1.5 0 0 1 1.89-2.33zm-6.217-5.035a1.5 1.5 0 1 1-1.89 2.331 1.5 1.5 0 0 1 1.89-2.331zm12.434 10.069a1.5 1.5 0 1 1-1.89 2.331 1.5 1.5 0 0 1 1.89-2.331zm12.435 10.069a1.5 1.5 0 1 1-1.89 2.331 1.5 1.5 0 0 1 1.89-2.331zm-6.217-5.035a1.5 1.5 0 1 1-1.89 2.332 1.5 1.5 0 0 1 1.89-2.332zm12.434 10.07a1.5 1.5 0 1 1-1.89 2.33 1.5 1.5 0 0 1 1.89-2.33zM1467-36.949a1.5 1.5 0 1 1-1.89 2.332 1.5 1.5 0 0 1 1.89-2.332zm-6.217-5.034a1.5 1.5 0 1 1-1.89 2.331 1.5 1.5 0 0 1 1.89-2.331zm12.434 10.069a1.5 1.5 0 1 1-1.889 2.332 1.5 1.5 0 0 1 1.89-2.332zm12.435 10.07a1.5 1.5 0 1 1-1.89 2.33 1.5 1.5 0 0 1 1.89-2.33zm-6.217-5.035a1.5 1.5 0 1 1-1.89 2.331 1.5 1.5 0 0 1 1.89-2.331zm12.434 10.069a1.5 1.5 0 1 1-1.89 2.331 1.5 1.5 0 0 1 1.89-2.331zm12.434 10.069a1.5 1.5 0 1 1-1.89 2.331 1.5 1.5 0 0 1 1.89-2.331zm-6.217-5.035a1.5 1.5 0 1 1-1.89 2.332 1.5 1.5 0 0 1 1.89-2.332zm12.434 10.07a1.5 1.5 0 1 1-1.889 2.331 1.5 1.5 0 0 1 1.89-2.332zm12.435 10.069a1.5 1.5 0 1 1-1.89 2.331 1.5 1.5 0 0 1 1.89-2.331zm-6.217-5.035a1.5 1.5 0 1 1-1.89 2.332 1.5 1.5 0 0 1 1.89-2.332zm12.434 10.07a1.5 1.5 0 1 1-1.89 2.33 1.5 1.5 0 0 1 1.89-2.33zm-103.137-95.1a1.5 1.5 0 1 1-1.89 2.332 1.5 1.5 0 0 1 1.89-2.332zm12.435 10.069a1.5 1.5 0 1 1-1.89 2.332 1.5 1.5 0 0 1 1.89-2.332zm-6.217-5.035a1.5 1.5 0 1 1-1.89 2.332 1.5 1.5 0 0 1 1.89-2.332zm12.434 10.07a1.5 1.5 0 1 1-1.89 2.331 1.5 1.5 0 0 1 1.89-2.331zm12.434 10.069a1.5 1.5 0 1 1-1.89 2.331 1.5 1.5 0 0 1 1.89-2.331zm-6.217-5.035a1.5 1.5 0 1 1-1.89 2.332 1.5 1.5 0 0 1 1.89-2.332zm12.434 10.07a1.5 1.5 0 1 1-1.89 2.33 1.5 1.5 0 0 1 1.89-2.33zm12.435 10.068a1.5 1.5 0 1 1-1.89 2.332 1.5 1.5 0 0 1 1.89-2.332zm-6.217-5.034a1.5 1.5 0 1 1-1.89 2.331 1.5 1.5 0 0 1 1.89-2.331zm12.434 10.069a1.5 1.5 0 1 1-1.89 2.332 1.5 1.5 0 0 1 1.89-2.332zm12.434 10.07a1.5 1.5 0 1 1-1.89 2.33 1.5 1.5 0 0 1 1.89-2.33zm-6.217-5.035a1.5 1.5 0 1 1-1.89 2.331 1.5 1.5 0 0 1 1.89-2.331zm12.434 10.069a1.5 1.5 0 1 1-1.89 2.331 1.5 1.5 0 0 1 1.89-2.331zm12.435 10.069a1.5 1.5 0 1 1-1.89 2.331 1.5 1.5 0 0 1 1.89-2.331zm-6.217-5.035a1.5 1.5 0 1 1-1.89 2.332 1.5 1.5 0 0 1 1.89-2.332zm12.434 10.07a1.5 1.5 0 1 1-1.89 2.331 1.5 1.5 0 0 1 1.89-2.332zm12.434 10.068a1.5 1.5 0 1 1-1.89 2.332 1.5 1.5 0 0 1 1.89-2.332zm-6.217-5.034a1.5 1.5 0 1 1-1.89 2.332 1.5 1.5 0 0 1 1.89-2.332zm12.434 10.069a1.5 1.5 0 1 1-1.89 2.332 1.5 1.5 0 0 1 1.89-2.332zM1383.28-35.26a1.5 1.5 0 1 1-1.89 2.332 1.5 1.5 0 0 1 1.89-2.331zm12.434 10.07a1.5 1.5 0 1 1-1.89 2.332 1.5 1.5 0 0 1 1.89-2.332zm-6.217-5.035a1.5 1.5 0 1 1-1.89 2.332 1.5 1.5 0 0 1 1.89-2.332zm12.434 10.07a1.5 1.5 0 1 1-1.89 2.331 1.5 1.5 0 0 1 1.89-2.331zm12.434 10.069a1.5 1.5 0 1 1-1.889 2.331 1.5 1.5 0 0 1 1.89-2.331zm-6.217-5.035a1.5 1.5 0 1 1-1.89 2.332 1.5 1.5 0 0 1 1.89-2.332zm12.435 10.07a1.5 1.5 0 1 1-1.89 2.33 1.5 1.5 0 0 1 1.89-2.33zm12.434 10.068a1.5 1.5 0 1 1-1.89 2.332 1.5 1.5 0 0 1 1.89-2.332zM1426.8-.016a1.5 1.5 0 1 1-1.89 2.331 1.5 1.5 0 0 1 1.89-2.331zm12.434 10.069a1.5 1.5 0 1 1-1.89 2.331 1.5 1.5 0 0 1 1.89-2.331zm12.434 10.069a1.5 1.5 0 1 1-1.889 2.332 1.5 1.5 0 0 1 1.89-2.332zm-6.217-5.035a1.5 1.5 0 1 1-1.89 2.332 1.5 1.5 0 0 1 1.89-2.332zm12.435 10.07a1.5 1.5 0 1 1-1.89 2.331 1.5 1.5 0 0 1 1.89-2.331zm12.434 10.069a1.5 1.5 0 1 1-1.89 2.331 1.5 1.5 0 0 1 1.89-2.331zm-6.217-5.035a1.5 1.5 0 1 1-1.89 2.332 1.5 1.5 0 0 1 1.89-2.332zm12.434 10.07a1.5 1.5 0 1 1-1.89 2.33 1.5 1.5 0 0 1 1.89-2.33zm12.434 10.068a1.5 1.5 0 1 1-1.889 2.332 1.5 1.5 0 0 1 1.89-2.332zm-6.217-5.034a1.5 1.5 0 1 1-1.89 2.331 1.5 1.5 0 0 1 1.89-2.331zm12.435 10.069a1.5 1.5 0 1 1-1.89 2.332 1.5 1.5 0 0 1 1.89-2.332zm-103.137-95.1a1.5 1.5 0 1 1-1.89 2.332 1.5 1.5 0 0 1 1.89-2.331zm12.434 10.07a1.5 1.5 0 1 1-1.89 2.332 1.5 1.5 0 0 1 1.89-2.332zm-6.217-5.035a1.5 1.5 0 1 1-1.89 2.332 1.5 1.5 0 0 1 1.89-2.332zm12.435 10.07a1.5 1.5 0 1 1-1.89 2.331 1.5 1.5 0 0 1 1.89-2.332zm12.434 10.069a1.5 1.5 0 1 1-1.89 2.331 1.5 1.5 0 0 1 1.89-2.331zm-6.217-5.035a1.5 1.5 0 1 1-1.89 2.332 1.5 1.5 0 0 1 1.89-2.332zm12.434 10.07a1.5 1.5 0 1 1-1.89 2.33 1.5 1.5 0 0 1 1.89-2.33zM1441.79.54a1.5 1.5 0 1 1-1.889 2.332 1.5 1.5 0 0 1 1.89-2.332zm-6.217-5.034a1.5 1.5 0 1 1-1.89 2.331 1.5 1.5 0 0 1 1.89-2.331zm12.435 10.069a1.5 1.5 0 1 1-1.89 2.331 1.5 1.5 0 0 1 1.89-2.331zm12.434 10.069a1.5 1.5 0 1 1-1.89 2.332 1.5 1.5 0 0 1 1.89-2.332zm-6.217-5.035a1.5 1.5 0 1 1-1.89 2.332 1.5 1.5 0 0 1 1.89-2.332zm12.434 10.07a1.5 1.5 0 1 1-1.89 2.331 1.5 1.5 0 0 1 1.89-2.331zm12.434 10.069a1.5 1.5 0 1 1-1.889 2.331 1.5 1.5 0 0 1 1.89-2.331zm-6.217-5.035a1.5 1.5 0 1 1-1.89 2.332 1.5 1.5 0 0 1 1.89-2.332zm12.435 10.07a1.5 1.5 0 1 1-1.89 2.33 1.5 1.5 0 0 1 1.89-2.33zm12.434 10.068a1.5 1.5 0 1 1-1.89 2.332 1.5 1.5 0 0 1 1.89-2.332zm-6.217-5.034a1.5 1.5 0 1 1-1.89 2.331 1.5 1.5 0 0 1 1.89-2.331zm12.434 10.069a1.5 1.5 0 1 1-1.89 2.332 1.5 1.5 0 0 1 1.89-2.332zM1394.607-49.247a1.5 1.5 0 1 1-1.89 2.332 1.5 1.5 0 0 1 1.89-2.332zm12.435 10.07a1.5 1.5 0 1 1-1.89 2.33 1.5 1.5 0 0 1 1.89-2.33zm-6.217-5.035a1.5 1.5 0 1 1-1.89 2.331 1.5 1.5 0 0 1 1.89-2.331zm12.434 10.069a1.5 1.5 0 1 1-1.89 2.331 1.5 1.5 0 0 1 1.89-2.331zm12.434 10.069a1.5 1.5 0 1 1-1.89 2.332 1.5 1.5 0 0 1 1.89-2.332zm-6.217-5.035a1.5 1.5 0 1 1-1.89 2.332 1.5 1.5 0 0 1 1.89-2.332zm12.434 10.07a1.5 1.5 0 1 1-1.89 2.331 1.5 1.5 0 0 1 1.89-2.331zm12.435 10.069a1.5 1.5 0 1 1-1.89 2.331 1.5 1.5 0 0 1 1.89-2.331zm-6.217-5.035a1.5 1.5 0 1 1-1.89 2.332 1.5 1.5 0 0 1 1.89-2.332zm12.434 10.07a1.5 1.5 0 1 1-1.89 2.33 1.5 1.5 0 0 1 1.89-2.33zm12.434 10.068a1.5 1.5 0 1 1-1.89 2.332 1.5 1.5 0 0 1 1.89-2.332zM1456.78 1.1a1.5 1.5 0 1 1-1.89 2.331 1.5 1.5 0 0 1 1.89-2.331zm12.434 10.069a1.5 1.5 0 1 1-1.89 2.332 1.5 1.5 0 0 1 1.89-2.332zm12.435 10.07a1.5 1.5 0 1 1-1.89 2.33 1.5 1.5 0 0 1 1.89-2.33zm-6.217-5.035a1.5 1.5 0 1 1-1.89 2.331 1.5 1.5 0 0 1 1.89-2.331zm12.434 10.069a1.5 1.5 0 1 1-1.89 2.331 1.5 1.5 0 0 1 1.89-2.331zm12.434 10.069a1.5 1.5 0 1 1-1.89 2.331 1.5 1.5 0 0 1 1.89-2.331zm-6.217-5.035a1.5 1.5 0 1 1-1.89 2.332 1.5 1.5 0 0 1 1.89-2.332zm12.434 10.07a1.5 1.5 0 1 1-1.89 2.33 1.5 1.5 0 0 1 1.89-2.33zm-103.136-95.1a1.5 1.5 0 1 1-1.89 2.332 1.5 1.5 0 0 1 1.89-2.332zm12.434 10.07a1.5 1.5 0 1 1-1.89 2.33 1.5 1.5 0 0 1 1.89-2.33zm-6.217-5.035a1.5 1.5 0 1 1-1.89 2.331 1.5 1.5 0 0 1 1.89-2.331zm12.434 10.069a1.5 1.5 0 1 1-1.89 2.331 1.5 1.5 0 0 1 1.89-2.331zm12.435 10.069a1.5 1.5 0 1 1-1.89 2.332 1.5 1.5 0 0 1 1.89-2.332zm-6.217-5.035a1.5 1.5 0 1 1-1.89 2.332 1.5 1.5 0 0 1 1.89-2.332zm12.434 10.07a1.5 1.5 0 1 1-1.89 2.331 1.5 1.5 0 0 1 1.89-2.331zm12.434 10.069a1.5 1.5 0 1 1-1.89 2.331 1.5 1.5 0 0 1 1.89-2.331zm-6.217-5.035a1.5 1.5 0 1 1-1.89 2.332 1.5 1.5 0 0 1 1.89-2.332zm12.434 10.07a1.5 1.5 0 1 1-1.89 2.33 1.5 1.5 0 0 1 1.89-2.33zm12.435 10.068a1.5 1.5 0 1 1-1.89 2.332 1.5 1.5 0 0 1 1.89-2.332zm-6.217-5.034a1.5 1.5 0 1 1-1.89 2.331 1.5 1.5 0 0 1 1.89-2.331zm12.434 10.069a1.5 1.5 0 1 1-1.89 2.332 1.5 1.5 0 0 1 1.89-2.332zm12.434 10.07a1.5 1.5 0 1 1-1.89 2.33 1.5 1.5 0 0 1 1.89-2.33zm-6.217-5.036a1.5 1.5 0 1 1-1.89 2.332 1.5 1.5 0 0 1 1.89-2.332zm12.434 10.07a1.5 1.5 0 1 1-1.89 2.331 1.5 1.5 0 0 1 1.89-2.331zm12.435 10.069a1.5 1.5 0 1 1-1.89 2.331 1.5 1.5 0 0 1 1.89-2.331zm-6.217-5.035a1.5 1.5 0 1 1-1.89 2.332 1.5 1.5 0 0 1 1.89-2.332zm12.434 10.07a1.5 1.5 0 1 1-1.89 2.33 1.5 1.5 0 0 1 1.89-2.33z" fill="#F47698"/><path d="M1607.143 285.677c.076-.585.904-.426 1.488-.509-.075.584-.902.426-1.488.51zm25.871-.201c.075-.584.903-.426 1.488-.51-.075.585-.903.428-1.488.51zm-19.4.648c1.222-1.95.738 1.643 0 0zm-29.847.73c.119-.628.986-.51.996-.008-.215.725-.438-.049-.996.008zm43.292.66c-.417.74-1.244 1.078-2.48 1.013.417-.741 1.244-1.08 2.48-1.014zm-44.769 1.341c-.138 2.456-2.248.379 0 0zm4.482.463c.148-.677 1.242-.423 1.985-.513-.147.677-1.242.422-1.985.513zm24.397 2.298c-.17.655-.869.79-.983 1.5-1.241-.192-.044-1.928.983-1.5zm-32.831.753c.402.26.811.513 1.495.486-.599 1.055-1.908 1.41-2.968 2.013l-.013-1.493c1 .162 1.557-.114 1.486-1.006zm27.864.28c.118-.626.986-.508.995-.007-.214.725-.437-.048-.995.007zm-58.206.95c.149-.676 1.242-.421 1.986-.512-.148.676-1.242.422-1.986.512zm52.737-.41c.34-1.77-.713 3.717 0 0zm-70.146 1.042l.995-.007.008.995-.996.008-.007-.996zm33.337.24c.713-1.654 1.253 1.93 0 0zm44.28-.344c1.723 1.272-2.55 1.222 0 0zm-26.859 1.204c1.723 1.273-2.55 1.223 0 0zm19.909.84c1.222-1.95.737 1.643 0 0zm4.474-.533c.445.384 1.128.527 1.993.483.166.876-2.78.91-1.993-.483zm-30.842.739c.583.073.425.903.509 1.488-.498.003-.996.008-1.493.01-.282-1.1.944-.715.984-1.498zm16.923.862c2.172-1.842 1.9 1.361 0 0zm31.351.753c.27-1.999-.397 2.945 0 0zm-49.752.386c-.427 2.376-2.01 3.614-4.446 4.015 2.581-1.268 1.7-2.91 4.446-4.015zm32.339-.251c.483 2.329-2.312.898 0 0zm-5.951 2.534c1.223-1.95.737 1.642 0 0zm-35.308 2.264c1.24.192.045 1.93-.983 1.5.17-.655.869-.79.983-1.5zm3.983.467c1.224-1.951.74 1.643 0 0zm-46.762.86c.12-.626.986-.51.995-.008-.214.726-.437-.047-.995.009zm25.377.3c.071-.136 1.064-.928 1.49-.508.345.34-1.953 1.386-1.49.509zm20.9.336c-.323.67-1.056.935-1.983 1.01.444-.87 1.099-1.924 1.983-1.01zm46.767-.363c1.659-1.216-1.19 1.678 0 0zm-17.41.633c1.84-1.752 2.536 1.336 0 0zm21.394-.167l.994-.007c.241 1.06-.703.952-1.484 1.007.092-.405.495-.501.49-1zm-28.837 2.712c.076-.583.903-.426 1.488-.51-.075.585-.904.427-1.488.51zm-22.388.174c.717.107.185 1.483 1.006 1.485-.55 1.602-1.424-.469-1.006-1.485zm-64.658 2.99c1.494-1.852 1.687 1.498 0 0zm112.443-.376c.118-.626.985-.51.995-.008-.215.726-.438-.047-.995.008zm-68.157 1.027c1.66-1.215-1.189 1.678 0 0zm37.82.7c.075-.582.903-.426 1.488-.508-.075.585-.903.426-1.488.508zm7.466.44c2.173-1.842 1.901 1.362 0 0zm-10.942.584c.076-.585.904-.426 1.488-.51-.075.583-.903.426-1.488.51zm-22.87 2.167c-1.572-1.628 1.2-3.103 0 0zm31.329-2.233c1.644.728-.835 1.411-.98 1.998-1.801-.884.679-1.566.98-1.998zm-91.031 2.697c-1.723-1.272 2.55-1.223 0 0zm80.097-1.12c.075-.584.903-.426 1.488-.51-.076.585-.903.428-1.488.51zm-17.41.633c.27-1.998-.397 2.946 0 0zM1482 316.502c.358-.89.904-.08 1.493-.012-.357.888-.904.08-1.493.012zm101.992-.792c1.659-1.215-1.19 1.677 0 0zm-88.56.688c.004 2.041-2.686 3.289-4.461 2.025.402-1.745 2.272-2.043 4.462-2.025zm113.94.11c.713-1.654 1.254 1.93 0 0zm-63.177 1.486c1.224-1.95.738 1.643 0 0zm39.305-.305c.075-.584.903-.427 1.488-.51-.075.584-.903.426-1.488.51zm14.43.385c-2.328.483-.897-2.312 0 0zm-54.73-.072c-.26.401-.513.81-.486 1.496-.963.205-.744-2.26.487-1.496zm36.32-.282c.889.357.079.903.011 1.492-.888-.357-.079-.904-.012-1.492zm-1.987.512c.718.107.186 1.484 1.006 1.484-.549 1.603-1.423-.468-1.006-1.484zm3.988.964c.691-2.19 2.067 2.323.012 1.492-.111-.85.838-1.295-.012-1.492zm24.378-.189c1.223-1.95.738 1.643 0 0zm-39.296 1.3c.27-1.999-.397 2.946 0 0zm35.328.223c.27-1.998-.398 2.946 0 0zm-99.998 1.275c.27-1.999-.398 2.946 0 0zm-13.425 1.098c1.66-1.214-1.19 1.679 0 0zm-16.911.63c.075-.584.903-.427 1.488-.51-.075.584-.903.428-1.488.51zm19.896-.652c-.212.613-.628 1.026-1.485 1.006.213-.614.63-1.027 1.485-1.006zm8.462.432c-.146-.79 2.682-.719 1.497.486.189-.193-1.504-.521-1.497-.486zm68.67.959c.711-1.655 1.253 1.93 0 0zm31.347.254c1.24.192.044 1.928-.984 1.5.17-.655.87-.79.984-1.5zm-65.171 1.003l.995-.007.007.996-.995.008-.007-.997zm25.377.3c.03-.035-.038-.49-.004-.498 2.387-.439-2.337 3.217.004.499zm-2.981.522c.076-.583.903-.428 1.488-.51-.075.584-.903.427-1.488.51zm16.418-.127c.118-.628.985-.51.996-.008-.216.724-.439-.048-.996.008zm22.388-.174c.167-.602 1.32-.413 1.492-.011.46 1.071-1.813 1.166-1.492.011zm-18.397 1.635c-1.16 1.609-2.024-1.734 0 0zm16.423.37c.118-.627.985-.51.994-.008-.214.725-.436-.048-.994.007zm-35.32.772l.994-.008.007.995c-.33.004-.662.006-.994.008l-.007-.995zm37.317.207c.48-2.108 1.358 1.747 1.493-.012.422-.094.47.191.501.495l.007.994c-.89.071-1.053-.6-1.993-.48.302-.447.595-.897-.008-.997zm-31.838.746c1.223-1.95.738 1.642 0 0zm7.958-.56c.33-.004.663-.006.995-.008l.007.995c-.331.003-.664.005-.995.009l-.007-.997zm-5.458 2.032c.076-.584.904-.426 1.488-.51-.075.585-.903.427-1.488.51zm27.862-.216c.118-.627.985-.51.994-.008-.214.726-.436-.047-.994.008zm-40.793.814c.071-.136 1.063-.929 1.488-.51.347.343-1.952 1.388-1.488.51zm34.822-.768c-.213.614-.628 1.027-1.485 1.006.213-.613.628-1.026 1.485-1.006zm-24.363 2.18c.075-.584.904-.426 1.489-.509-.076.583-.904.426-1.49.509zm10.448-.081c1.66-1.215-1.19 1.677 0 0zm-6.449 2.538c.358-.89.904-.08 1.493-.012-.358.888-.904.08-1.493.012zm-4.97.536c1.222-1.95.737 1.643 0 0zm.015 1.99c1.223-1.95.738 1.642 0 0zm-1.99.016c1.036.27 1.06.768.509 1.488l-.996.008c.261-.402.513-.812.487-1.496zm6.479 1.441c.075-.583.904-.425 1.49-.509-.077.584-.904.428-1.49.51zm-8.947 1.065c1.659-1.215-1.19 1.679 0 0zm-23.369 2.171c.12-.626.986-.51.996-.008-.215.726-.438-.047-.996.008zm22.882-.675c-.29 2.042-1.359 1.007-2.977 1.02.496-.829 2.11-.558 2.977-1.02zm18.921 1.844c1.66-1.216-1.19 1.678 0 0zm-21.39.663l.997-.008c.001.332.004.664.007.996l-.996.008-.007-.996zm-65.146 3.988c.712-1.653 1.251 1.933 0 0zm58.224 1.539c-2.963.363-1.351-2.285 0 0zm.494-.503c.072-.135 1.063-.926 1.489-.508.346.343-1.953 1.388-1.49.508zm.52 2.983c.878-.166.91 2.78-.482 1.995.383-.446.527-1.128.483-1.995zm-6.459 1.045c.402.26.811.514 1.496.487-.091.403-.496.5-.49.998l-.995.009-.011-1.494zm1.542 6.457c.076-.584.905-.427 1.49-.51-.077.584-.905.427-1.49.51zm-40.788 1.312c2.283.314-.376 3.014 0 0zm39.805.188c.03-.036-.038-.49-.003-.497 2.385-.441-2.338 3.215.003.497zm-40.77 3.799c-1.032-1.291-3.822 1.542-2.468 2.507.494-.666.809-1.508 1.477-2 .125.761.82.065.992-.507zm32.856 2.234c.03-.036-.039-.493-.003-.498 2.385-.442-2.338 3.216.003.498zm-28.35 1.214c.712-1.655 1.252 1.932 0 0zm46.83-120.273c-.048.941-1.641.358-1.481 1.505-1.053-.146.508-1.732 1.481-1.505zm-12.365 9.55c2.343.441.802 1.562.521 2.98-1.02-.689.475-1.717-.521-2.98zm-8.948 1.065c-.36.467-.898.761-1.484 1.005-1.252-.202.82-1.077 1.484-1.005zm3.533 6.44c.304.025.59.07.502.494-.5.002-.589.408-.99.505-.002-.277-.408-.561-.498.003.884.915 1.54-.14 1.981-1.01-.196-.575-2.42-.556-.995.008zm94.039.264c-.838-1.948 1.291 2.643 0 0zm-92.037 1.213c-1.542-.633 1.424-.666.998.49-.42.952-.298-.536-.998-.49zm-36.291 3.765c-1.463-1.121.626-.943 1.488-.51-.04 1.763-1.653-1.044-1.488.51zm129.35-1.502c-.01.483-.606.39-.991.505-.345 1.354 2.344-.374 1.997.98 1.419.867-1.28-.433-2.487.019-.098-1.085.395-1.586 1.482-1.504zm-2.484.517c1.239.064.16 1.683.016 1.989-.89-1.506-1.53 1.37-1.99.016-1.058-.27 1.613-.527 1.974-2.005zm-105.924 6.793c.957-1.175-1.854 2.272 0 0zm100.004-.28c3.405.18-2.107-.639 0 0zm13.426-1.099c-.32.509-1.14.524-.983 1.5-1.242-.192-.045-1.927.983-1.5zm-24.864 1.686c-.92-1.583 2.2 2.569 0 0zm-35.81 1.77c1.52-2.577-.899 1.525 0 0zm-15.917.623c-1.627-.926 2.46 1.397 0 0zm40.318 2.174c1.887-.961-2.62 1.335 0 0zm29.851-.232c-2.64-1.296 1.901.931 0 0zm-140.28 3.576c1.702 1.04.198 1.444.023 2.986-.892.07-1.054-.6-1.995-.481.84-.709 2.512.421 1.972-2.505zm62.2 1.01c2.438-1.436-1.611.95 0 0zm62.195.015c-1.627-.924 2.458 1.399 0 0zm-22.882.675c1.754.836-1.151 1.1-1.482 1.505-1.485-.57 1.627-.632 1.482-1.505zm15.434 1.373c1.03-.565 1.051-.544.502.494-1.032.274-1.07-1.93-.502-.494zm-18.894 1.64c-.995.45.238 2.176.505.99-.302-.025-.59-.07-.5-.493.774.034.333-1.449-.005-.497zm-9.441 1.565c-1.264.267-1.923.864-1.998-.98 1.265-.266 1.923-.863 1.998.98zm-32.809 3.737c1.053.147-.51 1.733-1.481 1.506-.788-1.763 1.687-.314 1.481-1.506zm26.372.293c1.584-.92-2.57 2.2 0 0zm29.385 3.754c-1.229 2.405-3.05.612 0 0zm-34.325.764c-.32.508-1.14.522-.983 1.5-1.241-.194-.045-1.93.983-1.5zm15.446 2.864c-.64-2.715 3.192.064 0 0zm16.43 1.365c.888-.147 1.024.463.502.494-.747 1.857-1.405 1.21-.502-.494zm-54.715 1.918c2.437-1.436-1.613.95 0 0zm47.26-.865c-.139 1.016-1.338.986-1.477 2.002-.842-.084.212-2.366 1.477-2.002zm-29.35.726c.467.361.761.899 1.006 1.485-.203 1.252-1.077-.82-1.006-1.485zm30.372 2.75c.759-2.357 2.46-.682 0 0zm-37.307 1.285c1.52-2.58-.898 1.524 0 0zm-71.6 6.029c.926-1.628-1.398 2.458 0 0zm-5.468.54c-2.64-1.296 1.9.93 0 0zm61.711 2.008c.374 1.355-.98 1.009-.98 1.998-.65.25-.236-2.468.98-1.998zm29.855.266c-1.299 1.237-2.894-1.413 0 0zm-78.095 2.596c.926-1.627-1.398 2.46 0 0zm78.13 1.88c1.521-2.579-.899 1.525 0 0zm10.46 1.413c-1.542-.634 1.423-.667.998.489-.42.953-.3-.535-.998-.49zm-51.727 2.39c.073 1.232-.603.851-.497.005.807-1.158 3.34.143.497-.004zm62.7 1.007c1.443.267-.758.782-.488 1.498-1.651-.475.55-.99.487-1.498zm-21.85 5.643c-1.626-.925 2.46 1.398 0 0zm-12.422 2.087c1.653.473-.548.986-.486 1.496-1.443-.268.758-.782.486-1.496zm7.987 3.42c.316-1.492 1.068.468 1.991-.015-.092.402-.496.501-.49.997l-.995.009c-.096-.42.19-.47.493-.501-.017-.483-.612-.381-.999-.49zm13.46 3.378c1.033-.273 1.07 1.933.502.495-1.03.564-1.05.544-.502-.495zm-7.408 7.023c2.436-1.436-1.612.951 0 0zm-55.155 9.385c2.437-1.436-1.612.949 0 0zm26.391 2.78c.89-.154.047 1.93-.983 1.5-.282-1.101.945-.715.983-1.5z" fill="#19212E" opacity=".32"/></g></svg>