<?xml version="1.0" standalone="no"?>
<!DOCTYPE svg PUBLIC "-//W3C//DTD SVG 1.1//EN" "http://www.w3.org/Graphics/SVG/1.1/DTD/svg11.dtd">
<svg stroke-width="0.501" stroke-linejoin="bevel" fill-rule="evenodd" xmlns:xlink="http://www.w3.org/1999/xlink" xmlns="http://www.w3.org/2000/svg" version="1.1" overflow="visible" viewBox="0 0 600 130.5">
 <defs>
	</defs>
 <g id="Document" fill="none" stroke="black" font-family="Times New Roman" font-size="16" transform="scale(1 -1)">
  <g id="Spread" transform="translate(0 -130.5)">
   <g id="Layer 1">
    <path d="M 125.485,6.283 C 122.329,7.679 119.85,9.578 118.054,11.982 C 116.258,14.385 115.115,17.226 114.624,20.506 C 114.136,23.785 114.192,27.34 114.796,31.172 C 115.381,34.874 116.531,38.365 118.251,41.644 C 119.97,44.926 122.157,47.782 124.815,50.219 C 127.472,52.654 130.537,54.586 134.008,56.015 C 137.483,57.444 141.297,58.158 145.452,58.158 C 148.181,58.158 150.643,57.913 152.839,57.427 C 155.035,56.94 157.133,56.241 159.134,55.333 L 154.286,43.74 C 153.003,44.259 151.581,44.714 150.019,45.103 C 148.456,45.493 146.668,45.688 144.656,45.688 C 140.37,45.688 136.96,44.358 134.43,41.695 C 131.901,39.031 130.291,35.524 129.605,31.172 C 128.878,26.561 129.305,22.989 130.886,20.458 C 132.467,17.923 135.726,16.657 140.663,16.657 C 142.415,16.657 144.324,16.82 146.388,17.144 C 148.454,17.468 150.386,17.989 152.189,18.703 L 152.36,6.817 C 150.558,6.103 148.35,5.487 145.736,4.966 C 143.12,4.448 140.286,4.187 137.234,4.187 C 132.558,4.187 128.641,4.886 125.485,6.283 Z M 225.797,6.234 C 222.604,7.596 220.071,9.464 218.205,11.835 C 216.339,14.206 215.126,17.013 214.566,20.261 C 214.007,23.509 214.024,27.016 214.618,30.783 C 215.334,35.329 216.66,39.306 218.593,42.717 C 220.528,46.126 222.811,48.968 225.443,51.24 C 228.074,53.514 230.96,55.236 234.1,56.405 C 237.239,57.574 240.366,58.158 243.485,58.158 C 250.758,58.158 256.156,55.933 259.676,51.485 C 263.196,47.037 264.273,40.492 262.913,31.854 C 262.778,31.01 262.601,30.086 262.377,29.078 C 262.153,28.072 261.947,27.179 261.76,26.399 L 228.83,26.399 C 228.686,23.412 229.707,21.041 231.9,19.289 C 234.09,17.534 237.263,16.657 241.422,16.657 C 244.084,16.657 246.736,16.9 249.379,17.389 C 252.02,17.875 254.209,18.476 255.947,19.19 L 256.036,7.403 C 255.195,7.013 254.094,6.624 252.734,6.234 C 251.374,5.844 249.874,5.502 248.237,5.21 C 246.601,4.918 244.857,4.676 243.008,4.479 C 241.158,4.286 239.324,4.187 237.506,4.187 C 232.895,4.187 228.991,4.869 225.797,6.234 Z M 277.348,5.989 C 274.921,7.062 273.077,8.555 271.82,10.472 C 270.564,12.386 269.842,14.709 269.656,17.437 C 269.469,20.165 269.638,23.185 270.159,26.497 L 276.949,69.556 L 291.833,71.894 L 289.452,56.794 L 306.89,56.794 L 304.986,44.714 L 287.546,44.714 L 284.706,26.692 C 284.224,23.638 284.375,21.203 285.16,19.385 C 285.945,17.566 287.962,16.657 291.208,16.657 C 292.767,16.657 294.398,16.803 296.101,17.096 C 297.803,17.389 299.377,17.794 300.823,18.313 L 301.086,7.013 C 299.22,6.299 297.174,5.682 294.949,5.161 C 292.724,4.642 290.052,4.382 286.935,4.382 C 282.973,4.382 279.778,4.918 277.348,5.989 Z M 71.484,5.356 C 68.881,5.941 66.709,6.899 64.971,8.231 C 63.234,9.561 62.013,11.299 61.311,13.441 C 60.61,15.586 60.507,18.216 60.998,21.334 C 61.468,24.32 62.47,26.854 63.999,28.931 C 65.527,31.01 67.397,32.665 69.605,33.9 C 71.812,35.134 74.258,36.027 76.943,36.579 C 79.627,37.131 82.366,37.407 85.159,37.407 C 87.045,37.407 88.703,37.326 90.139,37.165 C 91.575,37.002 92.727,36.79 93.594,36.53 L 93.811,37.895 C 94.198,40.362 93.764,42.344 92.507,43.837 C 91.249,45.33 88.767,46.078 85.067,46.078 C 82.598,46.078 80.135,45.899 77.675,45.542 C 75.216,45.185 73.058,44.682 71.203,44.032 L 71.195,55.723 C 72.08,55.982 73.179,56.258 74.491,56.551 C 75.804,56.843 77.224,57.102 78.756,57.33 C 80.284,57.557 81.89,57.751 83.571,57.913 C 85.252,58.077 86.938,58.158 88.628,58.158 C 92.914,58.158 96.409,57.671 99.112,56.695 C 101.816,55.723 103.885,54.326 105.322,52.508 C 106.755,50.689 107.624,48.481 107.929,45.883 C 108.233,43.285 108.135,40.396 107.633,37.213 L 102.872,7.013 C 100.72,6.558 97.746,6.023 93.946,5.406 C 90.147,4.789 85.618,4.479 80.357,4.479 C 77.046,4.479 74.086,4.772 71.484,5.356 Z M 2.773,5.551 L 13.266,72.089 C 16.682,72.739 20.259,73.192 24.004,73.453 C 27.745,73.713 31.013,73.843 33.806,73.843 C 43.872,73.843 51.323,72.072 56.154,68.533 C 60.987,64.993 62.768,59.196 61.498,51.143 C 60.217,43.026 56.564,37.165 50.541,33.559 C 44.517,29.955 36.44,28.151 26.31,28.151 L 21.535,28.151 L 17.97,5.551 L 2.773,5.551 Z M 159.281,5.551 L 170.833,78.812 L 185.718,81.15 L 178.958,38.285 C 180.632,39.844 182.366,41.468 184.158,43.155 C 185.951,44.843 187.693,46.516 189.382,48.172 C 191.073,49.829 192.669,51.403 194.17,52.898 C 195.672,54.391 196.965,55.689 198.048,56.794 L 215.292,56.794 C 211.225,52.833 207.267,49.05 203.418,45.444 C 199.571,41.84 195.397,38.122 190.896,34.289 C 192.566,32.536 194.25,30.442 195.944,28.007 C 197.637,25.571 199.254,23.054 200.794,20.458 C 202.332,17.858 203.708,15.261 204.922,12.662 C 206.138,10.065 207.127,7.695 207.891,5.551 L 191.233,5.551 C 190.461,7.24 189.57,9.106 188.562,11.152 C 187.552,13.199 186.462,15.245 185.291,17.29 C 184.12,19.337 182.854,21.3 181.496,23.185 C 180.136,25.068 178.748,26.658 177.328,27.958 L 173.795,5.551 L 159.281,5.551 Z M 87.204,15.78 C 88.514,15.844 89.568,15.943 90.368,16.072 L 92.104,27.081 C 91.541,27.21 90.683,27.34 89.535,27.471 C 88.386,27.6 87.326,27.666 86.35,27.666 C 84.988,27.666 83.692,27.585 82.465,27.423 C 81.238,27.261 80.133,26.951 79.153,26.497 C 78.172,26.042 77.361,25.424 76.718,24.645 C 76.076,23.865 75.662,22.893 75.478,21.724 C 75.12,19.45 75.634,17.875 77.021,16.999 C 78.41,16.121 80.435,15.683 83.098,15.683 C 84.527,15.683 85.896,15.716 87.204,15.78 Z M 249.526,39.941 C 249.353,41.11 248.965,42.148 248.36,43.058 C 247.757,43.968 246.933,44.714 245.888,45.299 C 244.844,45.883 243.477,46.175 241.791,46.175 C 240.167,46.175 238.725,45.899 237.471,45.347 C 236.214,44.795 235.126,44.064 234.202,43.155 C 233.279,42.247 232.511,41.192 231.9,39.989 C 231.288,38.789 230.788,37.571 230.398,36.337 L 249.589,36.337 C 249.72,37.571 249.697,38.772 249.526,39.941 Z M 40.576,43.253 C 43.463,44.682 45.214,47.344 45.83,51.24 C 46.126,53.123 46.031,54.683 45.542,55.916 C 45.055,57.15 44.238,58.141 43.089,58.888 C 41.94,59.636 40.481,60.155 38.707,60.447 C 36.935,60.739 34.945,60.885 32.737,60.885 C 31.632,60.885 30.54,60.853 29.459,60.788 C 28.376,60.723 27.441,60.657 26.651,60.593 L 23.578,41.11 L 28.351,41.11 C 33.612,41.11 37.686,41.824 40.576,43.253 Z" fill="#ffffff" stroke-linecap="round" stroke="none" stroke-width="2.435" fill-rule="nonzero" stroke-linejoin="round" marker-start="none" marker-end="none" stroke-miterlimit="79.8403193612775"/>
    <path d="M 442.196,5.259 C 439.364,5.844 437.06,6.461 435.279,7.11 L 446.769,79.981 L 453.285,81.15 L 448.831,52.898 C 450.067,53.741 451.978,54.634 454.563,55.575 C 457.146,56.519 460.094,56.989 463.407,56.989 C 467.044,56.989 470.173,56.339 472.793,55.041 C 475.414,53.741 477.513,51.923 479.093,49.585 C 480.674,47.247 481.712,44.471 482.212,41.254 C 482.712,38.04 482.659,34.516 482.055,30.685 C 481.41,26.593 480.23,22.924 478.516,19.678 C 476.803,16.43 474.679,13.669 472.145,11.397 C 469.61,9.123 466.739,7.386 463.53,6.186 C 460.32,4.983 456.865,4.382 453.162,4.382 C 448.682,4.382 445.026,4.676 442.196,5.259 Z M 496.465,5.259 C 493.633,5.844 491.329,6.461 489.548,7.11 L 501.038,79.981 L 507.554,81.15 L 503.1,52.898 C 504.336,53.741 506.247,54.634 508.832,55.575 C 511.415,56.519 514.363,56.989 517.677,56.989 C 521.313,56.989 524.443,56.339 527.062,55.041 C 529.683,53.741 531.782,51.923 533.362,49.585 C 534.943,47.247 535.981,44.471 536.481,41.254 C 536.981,38.04 536.928,34.516 536.325,30.685 C 535.679,26.593 534.499,22.924 532.785,19.678 C 531.072,16.43 528.948,13.669 526.415,11.397 C 523.879,9.123 521.008,7.386 517.799,6.186 C 514.589,4.983 511.134,4.382 507.431,4.382 C 502.952,4.382 499.295,4.676 496.465,5.259 Z M 395.416,5.356 C 393.268,5.941 391.466,6.866 390.009,8.134 C 388.553,9.4 387.511,11.024 386.88,13.004 C 386.253,14.986 386.163,17.403 386.612,20.261 C 387.043,22.989 387.932,25.328 389.278,27.276 C 390.625,29.224 392.339,30.831 394.422,32.098 C 396.505,33.364 398.891,34.289 401.581,34.874 C 404.271,35.458 407.143,35.751 410.195,35.751 C 411.105,35.751 412.056,35.702 413.045,35.606 C 414.038,35.509 414.992,35.378 415.908,35.216 C 416.823,35.054 417.61,34.891 418.266,34.728 C 418.922,34.565 419.37,34.42 419.611,34.289 L 420.1,37.407 C 420.379,39.161 420.516,40.865 420.518,42.522 C 420.52,44.178 420.186,45.671 419.521,47.003 C 418.854,48.334 417.789,49.406 416.325,50.219 C 414.862,51.03 412.832,51.437 410.234,51.437 C 406.532,51.437 403.731,51.175 401.829,50.657 C 399.929,50.137 398.531,49.715 397.636,49.389 L 397.634,54.943 C 398.82,55.462 400.603,55.95 402.98,56.405 C 405.357,56.858 408.17,57.086 411.416,57.086 C 414.729,57.086 417.464,56.616 419.622,55.674 C 421.778,54.732 423.44,53.433 424.607,51.778 C 425.776,50.12 426.505,48.157 426.796,45.883 C 427.087,43.609 427.023,41.141 426.602,38.478 L 421.594,6.72 C 420.913,6.527 419.939,6.313 418.669,6.086 C 417.399,5.859 415.932,5.616 414.267,5.356 C 412.602,5.097 410.767,4.886 408.761,4.723 C 406.755,4.562 404.712,4.479 402.633,4.479 C 399.97,4.479 397.565,4.772 395.416,5.356 Z M 572.27,5.697 C 570.288,6.51 568.793,7.744 567.788,9.4 C 566.783,11.055 566.214,13.117 566.084,15.586 C 565.953,18.054 566.154,20.975 566.688,24.354 L 574.001,70.725 L 580.518,71.894 L 577.998,55.916 L 598.066,55.916 L 597.221,50.558 L 577.153,50.558 L 572.928,23.768 C 572.476,20.911 572.354,18.59 572.561,16.803 C 572.766,15.017 573.247,13.637 574.002,12.662 C 574.757,11.689 575.758,11.041 577.007,10.714 C 578.255,10.389 579.658,10.228 581.217,10.228 C 583.88,10.228 586.07,10.537 587.791,11.152 C 589.514,11.769 590.869,12.338 591.862,12.858 L 592.59,7.596 C 591.587,7.013 589.893,6.347 587.501,5.6 C 585.111,4.854 582.584,4.479 579.92,4.479 C 576.803,4.479 574.254,4.886 572.27,5.697 Z M 330.693,5.551 L 341.139,71.795 C 343.579,72.447 346.398,72.917 349.594,73.209 C 352.79,73.502 355.719,73.647 358.381,73.647 C 367.67,73.647 374.391,71.894 378.547,68.388 C 382.703,64.881 384.237,59.685 383.152,52.799 C 382.352,47.734 380.39,43.74 377.267,40.816 C 374.143,37.895 370.304,35.784 365.747,34.485 C 366.581,33.186 367.653,31.433 368.96,29.224 C 370.269,27.016 371.593,24.596 372.931,21.966 C 374.27,19.337 375.558,16.593 376.796,13.735 C 378.034,10.876 379.031,8.149 379.792,5.551 L 372.679,5.551 C 371.726,8.149 370.658,10.747 369.476,13.345 C 368.294,15.943 367.067,18.459 365.796,20.896 C 364.524,23.331 363.274,25.588 362.041,27.666 C 360.811,29.744 359.733,31.562 358.81,33.121 C 356.701,32.926 354.607,32.83 352.529,32.83 L 341.618,32.83 L 337.317,5.551 L 330.693,5.551 Z M 543.571,5.551 L 551.513,55.916 L 557.845,55.916 L 549.902,5.551 L 543.571,5.551 Z M 411.112,10.373 C 412.989,10.537 414.598,10.747 415.937,11.007 L 418.734,28.737 C 418.071,29.061 416.987,29.403 415.486,29.76 C 413.984,30.116 411.867,30.296 409.14,30.296 C 407.581,30.296 405.94,30.182 404.215,29.955 C 402.491,29.727 400.856,29.241 399.309,28.493 C 397.763,27.747 396.432,26.724 395.319,25.424 C 394.204,24.127 393.479,22.406 393.139,20.261 C 392.843,18.378 392.901,16.786 393.313,15.488 C 393.725,14.19 394.437,13.151 395.452,12.371 C 396.466,11.592 397.739,11.024 399.273,10.665 C 400.81,10.309 402.583,10.131 404.596,10.131 C 407.064,10.131 409.237,10.211 411.112,10.373 Z M 467.96,15.44 C 471.83,18.979 474.288,24.062 475.334,30.685 C 475.774,33.478 475.899,36.124 475.708,38.626 C 475.519,41.126 474.92,43.302 473.913,45.152 C 472.906,47.003 471.433,48.481 469.496,49.585 C 467.561,50.689 465.033,51.24 461.916,51.24 C 460.422,51.24 458.969,51.096 457.56,50.802 C 456.151,50.51 454.825,50.137 453.583,49.682 C 452.344,49.227 451.244,48.741 450.285,48.22 C 449.327,47.702 448.52,47.213 447.863,46.761 L 442.302,11.493 C 443.225,11.169 444.622,10.861 446.491,10.569 C 448.361,10.275 450.854,10.131 453.971,10.131 C 459.426,10.131 464.09,11.899 467.96,15.44 Z M 522.229,15.44 C 526.099,18.979 528.557,24.062 529.603,30.685 C 530.043,33.478 530.168,36.124 529.978,38.626 C 529.788,41.126 529.19,43.302 528.182,45.152 C 527.176,47.003 525.702,48.481 523.765,49.585 C 521.83,50.689 519.302,51.24 516.185,51.24 C 514.691,51.24 513.239,51.096 511.829,50.802 C 510.42,50.51 509.094,50.137 507.852,49.682 C 506.613,49.227 505.513,48.741 504.555,48.22 C 503.596,47.702 502.789,47.213 502.133,46.761 L 496.572,11.493 C 497.494,11.169 498.891,10.861 500.76,10.569 C 502.63,10.275 505.123,10.131 508.24,10.131 C 513.696,10.131 518.359,11.899 522.229,15.44 Z M 360.406,38.917 C 363.18,39.21 365.653,39.858 367.824,40.865 C 369.997,41.872 371.816,43.317 373.281,45.201 C 374.749,47.085 375.737,49.65 376.25,52.898 C 376.722,55.885 376.525,58.353 375.664,60.301 C 374.801,62.249 373.519,63.792 371.814,64.929 C 370.11,66.065 368.075,66.844 365.704,67.267 C 363.336,67.689 360.854,67.899 358.254,67.899 C 355.787,67.899 353.614,67.818 351.739,67.657 C 349.86,67.494 348.296,67.348 347.042,67.219 L 342.51,38.478 L 351.668,38.478 C 354.719,38.478 357.632,38.626 360.406,38.917 Z M 553.154,67.558 C 552.382,68.436 552.116,69.62 552.35,71.115 C 552.588,72.608 553.229,73.794 554.276,74.67 C 555.323,75.547 556.497,75.985 557.794,75.985 C 559.094,75.985 560.129,75.547 560.901,74.67 C 561.671,73.794 561.939,72.608 561.703,71.115 C 561.467,69.62 560.826,68.436 559.778,67.558 C 558.731,66.681 557.558,66.243 556.258,66.243 C 554.961,66.243 553.926,66.681 553.154,67.558 Z" fill="#ffffff" stroke-linecap="round" stroke="none" stroke-width="2.435" fill-rule="nonzero" stroke-linejoin="round" marker-start="none" marker-end="none" stroke-miterlimit="79.8403193612775"/>
    <path d="M 73.219,67.086 C 111.541,103.474 165.514,113.281 185.994,107.214 C 188.783,105.355 186.344,101.875 180.364,97.308 C 147.988,74.665 130.918,70.096 116.638,69.564 C 136.996,76.448 150.837,84.203 160.672,93.404 C 133.056,91.872 103.781,83.141 76.175,67.822 C 75.209,67.601 74.221,67.353 73.219,67.086 Z M 132.139,82.259 C 118.009,72.516 102.92,67.59 86.903,67.366 C 101.69,76.647 116.784,81.407 132.139,82.259 Z M 160.644,128.58 C 167.87,129.773 171.825,129.065 171.021,125.539 C 169.768,123.218 168.082,120.723 165.987,118.112 L 165.982,118.112 C 164.905,116.54 163.09,115.201 160.947,114.862 C 160.888,114.854 160.838,114.852 160.786,114.845 C 160.53,114.819 160.273,114.798 159.993,114.77 C 159.939,114.77 159.864,114.77 159.788,114.774 L 159.771,114.75 L 159.776,114.752 L 159.769,114.746 L 159.771,114.75 C 137.756,112.63 107.827,103.111 82.128,83.551 C 98.037,100.508 103.814,116.452 160.644,128.58 Z" fill="#ffffff" stroke-linecap="round" stroke="none" stroke-width="0.375" stroke-linejoin="miter" marker-start="none" marker-end="none" stroke-miterlimit="79.8403193612775"/>
   </g>
  </g>
 </g>
</svg>
