<?xml version="1.0" encoding="utf-8"?>
<svg viewBox="-100.653 137.331 1202.945 225.339" xmlns="http://www.w3.org/2000/svg">
  <path d="M 261.78 230.726 L 231.327 271.374 L 212.761 296.163 C 211.3 298.11 209.008 299.251 206.573 299.251 L 51.991 299.251 C 49.292 299.251 47.08 297.941 45.727 296.047 C 43.876 293.472 43.611 289.8 45.824 286.87 L 89.427 229.132 C 90.878 227.203 93.162 226.062 95.587 226.062 L 151.722 226.062 C 154.173 226.062 156.474 224.903 157.935 222.929 L 200.636 165.193 C 200.645 165.184 200.654 165.174 200.654 165.165 L 203.609 161.166 C 206.671 157.023 212.858 156.987 215.973 161.086 L 261.746 221.425 C 263.834 224.168 263.843 227.965 261.78 230.726" style="fill-rule: nonzero; fill: rgb(255, 255, 255);" transform="matrix(1, 0, 0, 1, -135.997665, 63.418301)"/>
  <path d="M 252.842 86.295 L 209.238 144.041 C 207.778 145.969 205.504 147.102 203.079 147.102 L 146.943 147.102 C 144.492 147.102 142.191 148.271 140.731 150.235 L 95.056 212.008 C 93.418 214.22 90.897 215.266 88.419 215.132 L 88.383 215.132 C 86.233 215 84.135 213.982 82.693 212.079 L 36.912 151.749 C 34.832 148.997 34.824 145.208 36.885 142.447 L 67.745 101.251 L 85.906 77.011 C 87.365 75.063 89.658 73.913 92.091 73.913 L 246.674 73.913 C 249.347 73.913 251.541 75.197 252.904 77.064 C 254.781 79.648 255.072 83.338 252.842 86.295" style="fill-rule: nonzero; fill: rgb(255, 255, 255);" transform="matrix(1, 0, 0, 1, -135.997665, 63.418301)"/>
  <g opacity="0.38" style="" transform="matrix(0.175117, 0, 0, 0.175117, -100.652725, 137.330505)">
    <path d="M1293.05,895.476l-279.925,373.675c-8.337,11.116 -21.429,17.633 -35.329,17.633l-77.571,0c-46.396,-104.004 -72.221,-219.279 -72.221,-340.516c0,-155.155 42.25,-300.501 115.884,-425.021c0.054,-0.05 0.1,-0.105 0.1,-0.15l16.879,-22.846c17.487,-23.654 52.812,-23.854 70.604,-0.454l261.379,344.562c11.925,15.667 11.975,37.346 0.2,53.117Z" style="fill-rule: nonzero; fill: rgb(255, 255, 255);"/>
  </g>
  <g opacity="0.38" style="" transform="matrix(0.175117, 0, 0, 0.175117, -100.652725, 137.330505)">
    <path d="M1119.15,1127.59l-106.025,141.558c-8.337,11.116 -21.429,17.633 -35.329,17.633l-882.733,0c-15.417,0 -28.05,-7.479 -35.78,-18.292c152.771,-165.512 371.55,-269.162 614.584,-269.162c163.641,-0 316.362,46.996 445.283,128.262Z" style="fill-rule: nonzero; fill: rgb(255, 255, 255);"/>
  </g>
  <g opacity="0.38" style="" transform="matrix(0.175117, 0, 0, 0.175117, -100.652725, 137.330505)">
    <path d="M473.029,335.572c0,156.816 -42.704,303.679 -117.141,429.566c-0.055,0.055 -0.105,0.1 -0.105,0.15l-17.029,23.096c-8.846,11.979 -22.237,17.992 -35.679,18.042l-0.204,-0c-12.279,-0.758 -24.258,-6.567 -32.496,-17.434l-261.429,-344.512c-11.879,-15.721 -11.925,-37.35 -0.154,-53.117l176.225,-235.25l103.704,-138.425c8.342,-11.116 21.429,-17.687 35.325,-17.687l79.8,-0c35.829,82.933 58.875,172.787 66.404,266.987c1.871,22.592 2.779,45.488 2.779,68.584Z" style="fill-rule: nonzero; fill: rgb(255, 255, 255);"/>
  </g>
  <g opacity="0.38" style="" transform="matrix(0.175117, 0, 0, 0.175117, -100.652725, 137.330505)">
    <path d="M1242.36,17.992c-153.988,162.53 -371.905,263.905 -613.525,263.905c-54.225,-0 -107.242,-5.1 -158.588,-14.909c-102.892,-19.454 -199.217,-57.608 -285.233,-110.875l103.704,-138.425c8.342,-11.116 21.429,-17.687 35.325,-17.687l882.737,-0c15.263,-0 27.796,7.329 35.58,17.991Z" style="fill-rule: nonzero; fill: rgb(255, 255, 255);"/>
  </g>
  <path d="M 395.007 165.155 Q 394.205 158.04 388.393 154.107 Q 382.581 150.173 373.762 150.173 Q 367.448 150.173 362.839 152.152 Q 358.229 154.132 355.698 157.564 Q 353.168 160.996 353.168 165.356 Q 353.168 169.013 354.897 171.669 Q 356.625 174.325 359.456 176.103 Q 362.287 177.882 365.544 179.06 Q 368.801 180.237 371.808 180.989 L 381.829 183.594 Q 386.739 184.797 391.9 186.851 Q 397.061 188.906 401.471 192.263 Q 405.88 195.62 408.611 200.58 Q 411.342 205.541 411.342 212.456 Q 411.342 221.174 406.857 227.939 Q 402.373 234.703 393.88 238.611 Q 385.387 242.52 373.361 242.52 Q 361.836 242.52 353.419 238.862 Q 345.001 235.204 340.241 228.465 Q 335.48 221.725 334.979 212.456 L 350.512 212.456 Q 350.963 218.018 354.145 221.7 Q 357.327 225.383 362.312 227.162 Q 367.298 228.941 373.261 228.941 Q 379.825 228.941 384.961 226.861 Q 390.097 224.782 393.053 221.049 Q 396.009 217.316 396.009 212.305 Q 396.009 207.746 393.429 204.84 Q 390.848 201.933 386.464 200.029 Q 382.079 198.125 376.568 196.672 L 364.442 193.365 Q 352.116 190.008 344.925 183.494 Q 337.735 176.98 337.735 166.257 Q 337.735 157.389 342.545 150.775 Q 347.356 144.16 355.573 140.478 Q 363.791 136.795 374.113 136.795 Q 384.535 136.795 392.527 140.453 Q 400.519 144.11 405.128 150.499 Q 409.738 156.888 409.939 165.155 Z" transform="matrix(1, 0, 0, 1, -135.997665, 63.418301)" style="fill: rgb(255, 255, 255); white-space: pre;"/>
  <path d="M 515.055 171.569 L 499.422 171.569 Q 498.52 166.558 496.064 162.75 Q 493.609 158.942 490.052 156.286 Q 486.494 153.631 482.11 152.278 Q 477.725 150.925 472.815 150.925 Q 463.946 150.925 456.956 155.384 Q 449.966 159.844 445.933 168.462 Q 441.899 177.08 441.899 189.507 Q 441.899 202.034 445.933 210.652 Q 449.966 219.27 456.981 223.68 Q 463.996 228.089 472.765 228.089 Q 477.625 228.089 482.01 226.761 Q 486.394 225.433 489.951 222.828 Q 493.509 220.222 495.989 216.439 Q 498.47 212.656 499.422 207.746 L 515.055 207.796 Q 513.802 215.362 510.22 221.7 Q 506.637 228.039 501.05 232.624 Q 495.463 237.208 488.298 239.714 Q 481.133 242.219 472.665 242.219 Q 459.336 242.219 448.914 235.881 Q 438.492 229.542 432.504 217.717 Q 426.517 205.892 426.517 189.507 Q 426.517 173.072 432.529 161.272 Q 438.542 149.472 448.964 143.133 Q 459.386 136.795 472.665 136.795 Q 480.832 136.795 487.922 139.125 Q 495.012 141.455 500.674 145.939 Q 506.336 150.424 510.044 156.862 Q 513.752 163.301 515.055 171.569 Z" transform="matrix(1, 0, 0, 1, -135.997665, 63.418301)" style="fill: rgb(255, 255, 255); white-space: pre;"/>
  <path d="M 541.606 240.816 L 525.171 240.816 L 562.1 138.198 L 579.988 138.198 L 616.917 240.816 L 600.482 240.816 L 571.47 156.837 L 570.668 156.837 Z M 544.362 200.631 L 597.676 200.631 L 597.676 213.658 L 544.362 213.658 Z" transform="matrix(1, 0, 0, 1, -135.997665, 63.418301)" style="fill: rgb(255, 255, 255); white-space: pre;"/>
  <path d="M 631.693 240.816 L 631.693 138.198 L 647.176 138.198 L 647.176 227.488 L 693.675 227.488 L 693.675 240.816 Z" transform="matrix(1, 0, 0, 1, -135.997665, 63.418301)" style="fill: rgb(255, 255, 255); white-space: pre;"/>
  <path d="M 711.306 240.816 L 711.306 138.198 L 775.643 138.198 L 775.643 151.526 L 726.789 151.526 L 726.789 182.793 L 772.286 182.793 L 772.286 196.071 L 726.789 196.071 L 726.789 227.488 L 776.244 227.488 L 776.244 240.816 Z" transform="matrix(1, 0, 0, 1, -135.997665, 63.418301)" style="fill: rgb(255, 255, 255); white-space: pre;"/>
  <path d="M 796.388 240.816 L 796.388 138.198 L 833.968 138.198 Q 844.891 138.198 852.057 141.78 Q 859.222 145.363 862.779 151.451 Q 866.337 157.539 866.337 165.155 Q 866.337 171.569 863.982 175.953 Q 861.627 180.337 857.694 182.968 Q 853.76 185.599 849.05 186.801 L 849.05 187.803 Q 854.161 188.054 859.046 191.085 Q 863.932 194.117 867.139 199.679 Q 870.345 205.24 870.345 213.207 Q 870.345 221.074 866.663 227.312 Q 862.98 233.551 855.313 237.183 Q 847.647 240.816 835.722 240.816 Z M 811.871 227.538 L 834.219 227.538 Q 845.342 227.538 850.152 223.229 Q 854.963 218.919 854.963 212.456 Q 854.963 207.595 852.507 203.537 Q 850.052 199.478 845.518 197.073 Q 840.983 194.668 834.77 194.668 L 811.871 194.668 Z M 811.871 182.592 L 832.615 182.592 Q 837.826 182.592 842.01 180.588 Q 846.194 178.584 848.674 174.951 Q 851.155 171.318 851.155 166.358 Q 851.155 159.994 846.695 155.685 Q 842.236 151.376 833.016 151.376 L 811.871 151.376 Z" transform="matrix(1, 0, 0, 1, -135.997665, 63.418301)" style="fill: rgb(255, 255, 255); white-space: pre;"/>
  <path d="M 888.689 240.816 L 888.689 138.198 L 904.172 138.198 L 904.172 227.488 L 950.671 227.488 L 950.671 240.816 Z" transform="matrix(1, 0, 0, 1, -135.997665, 63.418301)" style="fill: rgb(255, 255, 255); white-space: pre;"/>
  <path d="M 982.081 240.816 L 965.646 240.816 L 1002.574 138.198 L 1020.462 138.198 L 1057.391 240.816 L 1040.956 240.816 L 1011.944 156.837 L 1011.143 156.837 Z M 984.837 200.631 L 1038.15 200.631 L 1038.15 213.658 L 984.837 213.658 Z" transform="matrix(1, 0, 0, 1, -135.997665, 63.418301)" style="fill: rgb(255, 255, 255); white-space: pre;"/>
  <path d="M 1105.388 240.816 L 1072.167 240.816 L 1072.167 138.198 L 1106.44 138.198 Q 1121.522 138.198 1132.345 144.336 Q 1143.168 150.474 1148.955 161.923 Q 1154.743 173.373 1154.743 189.357 Q 1154.743 205.391 1148.905 216.915 Q 1143.068 228.44 1132.044 234.628 Q 1121.021 240.816 1105.388 240.816 Z M 1087.65 227.287 L 1104.536 227.287 Q 1116.261 227.287 1124.027 222.853 Q 1131.794 218.418 1135.652 209.975 Q 1139.51 201.532 1139.51 189.357 Q 1139.51 177.281 1135.677 168.863 Q 1131.844 160.445 1124.278 156.086 Q 1116.712 151.727 1105.488 151.727 L 1087.65 151.727 Z" transform="matrix(1, 0, 0, 1, -135.997665, 63.418301)" style="fill: rgb(255, 255, 255); white-space: pre;"/>
  <path d="M 1173.985 240.816 L 1173.985 138.198 L 1238.321 138.198 L 1238.321 151.526 L 1189.467 151.526 L 1189.467 182.793 L 1234.964 182.793 L 1234.964 196.071 L 1189.467 196.071 L 1189.467 227.488 L 1238.923 227.488 L 1238.923 240.816 Z" transform="matrix(1, 0, 0, 1, -135.997665, 63.418301)" style="fill: rgb(255, 255, 255); white-space: pre;"/>
</svg>